<svg width="3433" height="1063" viewBox="0 0 3433 1063" fill="none" xmlns="http://www.w3.org/2000/svg">
<path d="M1466.81 565.451C1490.08 571.906 1508.39 583.678 1521.75 600.766C1535.1 617.474 1541.77 638.739 1541.77 664.561C1541.77 699.116 1528.61 725.697 1502.29 744.304C1476.35 762.911 1438.39 772.215 1388.41 772.215H1197.27V373.496H1376.96C1422.74 373.496 1458.03 382.61 1482.83 400.837C1508.01 419.064 1520.6 444.316 1520.6 476.593C1520.6 497.479 1515.64 515.516 1505.72 530.705C1496.18 545.894 1483.21 557.476 1466.81 565.451ZM1254.5 419.634V547.223H1371.81C1401.19 547.223 1423.7 541.907 1439.34 531.275C1455.36 520.263 1463.37 504.314 1463.37 483.429C1463.37 462.543 1455.36 446.784 1439.34 436.152C1423.7 425.14 1401.19 419.634 1371.81 419.634H1254.5ZM1386.12 726.077C1418.55 726.077 1442.96 720.761 1459.37 710.128C1475.77 699.496 1483.98 682.788 1483.98 660.004C1483.98 615.575 1451.36 593.361 1386.12 593.361H1254.5V726.077H1386.12Z" fill="#2B2B2B"/>
<path d="M1759.14 727.786C1795.38 727.786 1824.57 715.635 1846.7 691.332L1876.46 726.647C1863.1 742.595 1846.13 754.747 1825.52 763.101C1805.3 771.455 1782.6 775.632 1757.42 775.632C1725.38 775.632 1696.95 769.177 1672.16 756.266C1647.36 742.975 1628.09 724.558 1614.36 701.015C1601.01 677.471 1594.33 650.89 1594.33 621.271C1594.33 592.032 1600.81 565.64 1613.79 542.097C1627.14 518.554 1645.26 500.327 1668.15 487.416C1691.42 474.125 1717.56 467.48 1746.55 467.48C1774.02 467.48 1799.01 473.745 1821.52 486.277C1844.03 498.428 1861.96 515.706 1875.31 538.11C1888.66 560.514 1895.53 586.336 1895.91 615.575L1654.99 662.282C1662.62 683.167 1675.4 699.306 1693.33 710.698C1711.64 722.09 1733.58 727.786 1759.14 727.786ZM1746.55 513.617C1727.48 513.617 1710.31 517.984 1695.05 526.718C1680.17 535.452 1668.53 547.793 1660.14 563.742C1651.75 579.311 1647.55 597.538 1647.55 618.423V624.119L1841.55 587.665C1836.59 565.64 1825.52 547.793 1808.36 534.123C1791.19 520.452 1770.59 513.617 1746.55 513.617Z" fill="#2B2B2B"/>
<path d="M2109.54 727.786C2145.78 727.786 2174.97 715.635 2197.1 691.332L2226.86 726.647C2213.5 742.595 2196.53 754.747 2175.92 763.101C2155.7 771.455 2133 775.632 2107.82 775.632C2075.78 775.632 2047.36 769.177 2022.56 756.266C1997.76 742.975 1978.49 724.558 1964.76 701.015C1951.41 677.471 1944.73 650.89 1944.73 621.271C1944.73 592.032 1951.21 565.64 1964.19 542.097C1977.54 518.554 1995.66 500.327 2018.55 487.416C2041.82 474.125 2067.96 467.48 2096.95 467.48C2124.42 467.48 2149.41 473.745 2171.92 486.277C2194.43 498.428 2212.36 515.706 2225.71 538.11C2239.06 560.514 2245.93 586.336 2246.31 615.575L2005.39 662.282C2013.02 683.167 2025.8 699.306 2043.73 710.698C2062.04 722.09 2083.98 727.786 2109.54 727.786ZM2096.95 513.617C2077.88 513.617 2060.71 517.984 2045.45 526.718C2030.57 535.452 2018.93 547.793 2010.54 563.742C2002.15 579.311 1997.95 597.538 1997.95 618.423V624.119L2191.95 587.665C2186.99 565.64 2175.92 547.793 2158.76 534.123C2141.59 520.452 2120.99 513.617 2096.95 513.617Z" fill="#2B2B2B"/>
<path d="M2483.98 467.48C2513.35 467.48 2539.68 473.935 2562.95 486.846C2586.22 499.757 2604.34 517.794 2617.31 540.958C2630.67 564.122 2637.34 590.893 2637.34 621.271C2637.34 651.65 2630.67 678.611 2617.31 702.154C2604.34 725.318 2586.22 743.355 2562.95 756.266C2539.68 769.177 2513.35 775.632 2483.98 775.632C2461.47 775.632 2440.87 771.265 2422.17 762.531C2403.48 753.798 2388.03 741.077 2375.82 724.368V772.215H2323.17V349.573H2378.11V515.896C2390.32 499.947 2405.58 487.985 2423.89 480.011C2442.2 471.657 2462.23 467.48 2483.98 467.48ZM2479.4 727.786C2498.86 727.786 2516.21 723.419 2531.47 714.685C2547.12 705.572 2559.32 693.04 2568.1 677.092C2577.26 660.763 2581.83 642.156 2581.83 621.271C2581.83 600.386 2577.26 581.969 2568.1 566.02C2559.32 549.692 2547.12 537.161 2531.47 528.427C2516.21 519.693 2498.86 515.326 2479.4 515.326C2460.32 515.326 2442.96 519.693 2427.32 528.427C2411.68 537.161 2399.47 549.692 2390.7 566.02C2381.92 581.969 2377.54 600.386 2377.54 621.271C2377.54 642.156 2381.92 660.763 2390.7 677.092C2399.47 693.04 2411.68 705.572 2427.32 714.685C2442.96 723.419 2460.32 727.786 2479.4 727.786Z" fill="#2B2B2B"/>
<path d="M2713.25 470.328H2768.19V772.215H2713.25V470.328Z" fill="#2B2B2B"/>
<path d="M3032.74 754.557C3024.73 761.392 3014.81 766.708 3002.98 770.506C2991.16 773.923 2978.95 775.632 2966.36 775.632C2935.84 775.632 2912.19 767.468 2895.4 751.139C2878.61 734.811 2870.22 711.457 2870.22 681.079V404.254H2925.16V470.328H3012.14V515.326H2925.16V678.801C2925.16 695.129 2929.16 707.66 2937.17 716.394C2945.57 725.128 2957.39 729.495 2972.65 729.495C2989.44 729.495 3003.75 724.748 3015.57 715.255L3032.74 754.557Z" fill="#2B2B2B"/>
<path d="M2695.89 375.51L2717.99 338.79H2762.2L2784.3 375.51L2762.2 412.23H2717.99L2695.89 375.51Z" fill="#2B2B2B"/>
<g filter="url(#filter0_i_198_3436)">
<path d="M561.904 437.47C574.664 462.695 629.952 442.23 656.001 428.844C669.074 422.818 633.949 409.441 613.696 403.158C612.929 402.92 612.15 402.821 611.348 402.867C588.904 404.153 549.371 412.693 561.904 437.47Z" fill="white"/>
</g>
<path d="M561.904 437.47C574.664 462.695 629.952 442.23 656.001 428.844C669.074 422.818 633.949 409.441 613.696 403.158C612.929 402.92 612.15 402.821 611.348 402.867C588.904 404.153 549.371 412.693 561.904 437.47Z" stroke="#2B2B2B" stroke-width="4"/>
<g filter="url(#filter1_i_198_3436)">
<path d="M598.24 393.825C610.161 397.023 649.755 418.266 670.28 431.745C671.254 418.261 665.987 385.071 637.125 360.179C618.362 343.996 601.483 346.043 588.997 355.021C575.706 364.578 575.028 383.489 589.78 390.587C592.785 392.033 595.749 393.157 598.24 393.825Z" fill="white"/>
</g>
<path d="M598.24 393.825C610.161 397.023 649.755 418.266 670.28 431.745C671.254 418.261 665.987 385.071 637.125 360.179C618.362 343.996 601.483 346.043 588.997 355.021C575.706 364.578 575.028 383.489 589.78 390.587C592.785 392.033 595.749 393.157 598.24 393.825Z" stroke="#2B2B2B" stroke-width="4"/>
<g filter="url(#filter2_i_198_3436)">
<path d="M690.619 208.408C591.622 238.273 636.91 369.873 670.904 429.815C664.501 409.715 676.06 385.157 689.027 367.715C698.432 355.064 709.006 342.89 715.148 328.371C755.597 232.758 716.933 208.274 690.619 208.408Z" fill="white"/>
</g>
<path d="M690.619 208.408C591.622 238.273 636.91 369.873 670.904 429.815C664.501 409.715 676.06 385.157 689.027 367.715C698.432 355.064 709.006 342.89 715.148 328.371C755.597 232.758 716.933 208.274 690.619 208.408Z" stroke="#2B2B2B" stroke-width="4"/>
<g filter="url(#filter3_i_198_3436)">
<path d="M672.094 431.679C693.701 405.671 729.248 351.659 698.583 343.671C660.252 333.686 663.112 422.659 672.094 431.679Z" fill="white"/>
</g>
<path d="M672.094 431.679C693.701 405.671 729.248 351.659 698.583 343.671C660.252 333.686 663.112 422.659 672.094 431.679Z" stroke="#2B2B2B" stroke-width="4"/>
<path d="M475.585 642.382C472.228 512.977 643.246 439.293 729.174 418.627C807.022 398.582 981.364 496.475 905.381 680.14C844.594 827.073 693.901 835.526 626.153 821.386C577.362 815.636 478.941 771.787 475.585 642.382Z" fill="#FFDF39" stroke="#2B2B2B" stroke-width="9"/>
<path d="M400 695.057C439.53 679.021 466.194 651.393 474.585 639.584L480.179 688.53C455.939 698.599 416.626 697.077 400 695.057Z" fill="#2B2B2B" stroke="#2B2B2B" stroke-width="8"/>
<path d="M901.185 677.344C758.541 833.972 566.019 583.646 735.234 419.56L651.326 443.8C543.177 631.194 701.67 795.747 801.428 795.747C834.991 795.747 901.185 705.313 901.185 677.344Z" fill="#2B2B2B"/>
<path d="M726.843 819.987C534.787 736.079 553.433 506.731 598.65 471.303C575.156 481.372 531.368 521.803 512.411 540.76C500.757 597.165 547.373 741.207 598.65 813.927C627.365 823.25 693.28 829.31 726.843 819.987Z" fill="#2B2B2B" stroke="#2B2B2B"/>
<path d="M884.779 697.666C726.921 817.458 593.232 572.775 718.033 433.764C728.423 422.19 743.932 416.407 759.413 417.898C903.563 431.788 947.358 570.085 908.78 666.618C903.843 678.97 895.375 689.625 884.779 697.666Z" fill="#FFDF39"/>
<path d="M852.206 484.144L850.22 481.549L848.813 484.498C838.859 505.36 817.087 519.862 791.796 519.862C757.059 519.862 729 492.528 729 458.931C729 425.334 757.059 398 791.796 398C814.227 398 833.892 409.408 844.997 426.546L846.801 429.331L848.421 426.434C855.842 413.16 868.692 404.527 883.162 404.527C905.747 404.527 924.515 425.691 924.515 452.406C924.515 479.121 905.747 500.285 883.162 500.285C870.906 500.285 859.827 494.099 852.206 484.144Z" fill="white" stroke="#2B2B2B" stroke-width="4"/>
<circle cx="801.428" cy="456.386" r="14.917" fill="#2B2B2B"/>
<circle cx="894.659" cy="447.994" r="13.9847" fill="#2B2B2B"/>
<path d="M846.179 425.619C850.632 412.11 847.938 374.547 813.868 364.392C811.179 363.591 809.391 360.908 810.078 358.187C814.846 339.298 825.137 308.67 836.39 306.283" stroke="#2B2B2B" stroke-width="4"/>
<path d="M857.231 297.427C857.231 305.135 850.196 311.742 841.051 311.742C831.906 311.742 824.871 305.135 824.871 297.427C824.871 289.719 831.906 283.111 841.051 283.111C850.196 283.111 857.231 289.719 857.231 297.427Z" fill="#FF9900" stroke="#2B2B2B" stroke-width="4"/>
<path d="M969.752 321.57C966.64 326.682 958.648 328.221 951.579 323.917C944.51 319.614 942.206 311.807 945.318 306.696C948.429 301.584 956.422 300.045 963.491 304.349C970.56 308.652 972.864 316.459 969.752 321.57Z" fill="#FF9900" stroke="#2B2B2B" stroke-width="4"/>
<path d="M846.645 425.62C849.597 407.284 859.045 362.036 871.351 359.426C886.734 356.162 919.365 400.913 950.132 324.464" stroke="#2B2B2B" stroke-width="4"/>
<path d="M650.859 853.55C674.727 843.854 669.816 830.864 664.378 825.581H676.964C689.55 830.242 673.235 862.407 667.175 861.941C662.327 861.568 654.278 856.192 650.859 853.55Z" fill="#2B2B2B"/>
<path d="M697.009 857.279C713.045 841.989 707.42 829.776 702.603 825.581H711.46C716.432 828.844 724.698 839.006 717.986 853.55C711.273 868.094 701.204 862.096 697.009 857.279Z" fill="#2B2B2B"/>
<path d="M850.84 786.89C857.926 766.752 853.793 762.961 850.84 763.582L857.366 756.124C878.623 765.074 866.223 784.714 857.366 793.416L850.84 786.89Z" fill="#2B2B2B"/>
<path d="M881.607 752.861C886.827 741.3 879.431 739.342 875.08 739.808L877.877 730.951C897.269 730.951 892.794 747.733 888.133 756.124L881.607 752.861Z" fill="#2B2B2B"/>
<path d="M841.517 513.636V505.245C854.57 490.794 894.659 509.44 854.57 535.545V543.936" stroke="#2B2B2B" stroke-width="4"/>
<path d="M588.395 535.167C615.432 516.52 681.626 575.256 615.432 647.976" stroke="#2B2B2B" stroke-width="5"/>
<path d="M479.78 659.164L474.653 627.932" stroke="#2B2B2B" stroke-width="5"/>
<path d="M538.982 615.346L479.78 659.164" stroke="#2B2B2B" stroke-width="5"/>
<path d="M552.501 716.968C567.418 675.014 557.628 647.977 538.982 615.346" stroke="#2B2B2B" stroke-width="5"/>
<path d="M508.216 702.517L552.501 716.967" stroke="#2B2B2B" stroke-width="5"/>
<path d="M493.765 721.163L508.216 702.517" stroke="#2B2B2B" stroke-width="5"/>
<path d="M557.629 744.471L493.765 721.163" stroke="#2B2B2B" stroke-width="5"/>
<path d="M545.042 785.026L557.628 744.471" stroke="#2B2B2B" stroke-width="5"/>
<path d="M572.545 750.997L563 796" stroke="#2B2B2B" stroke-width="5"/>
<path d="M594.455 757.989L572.545 750.997" stroke="#2B2B2B" stroke-width="5"/>
<path d="M585.132 808.8L594.455 757.989" stroke="#2B2B2B" stroke-width="5"/>
<path d="M607.973 812.995L585.132 808.8" stroke="#2B2B2B" stroke-width="5"/>
<path d="M607.973 757.989V812.996" stroke="#2B2B2B" stroke-width="5"/>
<path d="M615.432 647.976C662.98 627.931 716.588 721.162 607.973 757.989" stroke="#2B2B2B" stroke-width="5"/>
<path d="M583.12 630.713C598.184 632.663 612.359 619.075 614.781 600.364" stroke="#2B2B2B" stroke-width="5"/>
<path d="M560.23 593.304C557.808 612.015 568.056 628.764 583.12 630.713" stroke="#2B2B2B" stroke-width="5"/>
<path d="M591.89 562.955C576.826 561.005 562.651 574.593 560.23 593.304" stroke="#2B2B2B" stroke-width="5"/>
<path d="M614.781 600.364C617.203 581.653 606.954 564.904 591.89 562.954" stroke="#2B2B2B" stroke-width="5"/>
<path d="M613.239 728.365C594.281 733.319 575.581 724.581 571.47 708.849" stroke="#2B2B2B" stroke-width="5"/>
<path d="M640.122 690.912C644.232 706.644 632.196 723.413 613.239 728.366" stroke="#2B2B2B" stroke-width="5"/>
<path d="M598.354 671.395C617.311 666.442 636.012 675.18 640.122 690.912" stroke="#2B2B2B" stroke-width="5"/>
<path d="M571.47 708.849C567.36 693.117 579.396 676.349 598.354 671.396" stroke="#2B2B2B" stroke-width="5"/>
<path d="M474.653 627.932L588.395 535.167" stroke="#2B2B2B" stroke-width="5"/>
<path fill-rule="evenodd" clip-rule="evenodd" d="M565.223 554.064L588.395 535.166C615.432 516.52 681.626 575.256 615.432 647.976C662.98 627.931 716.588 721.162 607.973 757.989L603.5 812L584.666 806.935L594.455 757.989L572.545 750.996L562.5 796L545.042 785.026L557.628 744.47L493.765 721.162L483 689.5L550.873 711.5C565.79 669.546 557.628 647.976 538.982 615.345L479.78 660.096V623.27L528.369 584.122L515.208 540.18L529.881 524.445L542.162 572.872L550.873 565.768L538.05 516.986L554.199 503.623L565.223 554.064ZM614.781 600.364C612.359 619.075 598.184 632.663 583.12 630.713C568.056 628.764 557.808 612.015 560.23 593.304C562.651 574.593 576.826 561.005 591.89 562.955C606.954 564.904 617.203 581.653 614.781 600.364ZM571.47 708.849C575.581 724.581 594.281 733.319 613.239 728.366C632.196 723.413 644.233 706.644 640.122 690.912C636.012 675.18 617.311 666.442 598.354 671.395C579.396 676.348 567.36 693.117 571.47 708.849Z" fill="#FF9900"/>
<path fill-rule="evenodd" clip-rule="evenodd" d="M565.223 554.064L588.395 535.166C615.432 516.52 681.626 575.256 615.432 647.976C662.98 627.931 716.588 721.162 607.973 757.989L603.5 812L584.666 806.935L594.455 757.989L572.545 750.996L562.5 796L545.042 785.026L557.628 744.47L493.765 721.162L483 689.5L550.873 711.5C565.79 669.546 557.628 647.976 538.982 615.345L479.78 660.096V623.27L528.369 584.122L515.208 540.18L529.881 524.445L542.162 572.872L550.873 565.768L538.05 516.986L554.199 503.623L565.223 554.064ZM614.781 600.364C612.359 619.075 598.184 632.663 583.12 630.713C568.056 628.764 557.808 612.015 560.23 593.304C562.651 574.593 576.826 561.005 591.89 562.955C606.954 564.904 617.203 581.653 614.781 600.364ZM571.47 708.849C575.581 724.581 594.281 733.319 613.239 728.366C632.196 723.413 644.233 706.644 640.122 690.912C636.012 675.18 617.311 666.442 598.354 671.395C579.396 676.348 567.36 693.117 571.47 708.849Z" fill="#FF9900"/>
<path d="M565.223 554.064L588.395 535.166C615.432 516.52 681.626 575.256 615.432 647.976C662.98 627.931 716.588 721.162 607.973 757.989L603.5 812L584.666 806.935L594.455 757.989L572.545 750.996L562.5 796L545.042 785.026L557.628 744.47L493.765 721.162L483 689.5L550.873 711.5C565.79 669.546 557.628 647.976 538.982 615.345L479.78 660.096V623.27L528.369 584.122L515.208 540.18L529.881 524.445L542.162 572.872L550.873 565.768L538.05 516.986L554.199 503.623L565.223 554.064ZM583.12 630.713C598.184 632.663 612.359 619.075 614.781 600.364C617.203 581.653 606.954 564.904 591.89 562.955C576.826 561.005 562.651 574.593 560.23 593.304C557.808 612.015 568.056 628.764 583.12 630.713ZM613.239 728.366C594.281 733.319 575.581 724.581 571.47 708.849C567.36 693.117 579.396 676.348 598.354 671.395C617.311 666.442 636.012 675.18 640.122 690.912C644.233 706.644 632.196 723.413 613.239 728.366Z" stroke="#2B2B2B" stroke-width="5"/>
<defs>
<filter id="filter0_i_198_3436" x="557.503" y="400.855" width="103.342" height="50.5742" filterUnits="userSpaceOnUse" color-interpolation-filters="sRGB">
<feFlood flood-opacity="0" result="BackgroundImageFix"/>
<feBlend mode="normal" in="SourceGraphic" in2="BackgroundImageFix" result="shape"/>
<feColorMatrix in="SourceAlpha" type="matrix" values="0 0 0 0 0 0 0 0 0 0 0 0 0 0 0 0 0 0 127 0" result="hardAlpha"/>
<feOffset dx="9" dy="10"/>
<feComposite in2="hardAlpha" operator="arithmetic" k2="-1" k3="1"/>
<feColorMatrix type="matrix" values="0 0 0 0 0 0 0 0 0 0 0 0 0 0 0 0 0 0 1 0"/>
<feBlend mode="normal" in2="shape" result="effect1_innerShadow_198_3436"/>
</filter>
<filter id="filter1_i_198_3436" x="576.872" y="346.128" width="95.5141" height="89.1582" filterUnits="userSpaceOnUse" color-interpolation-filters="sRGB">
<feFlood flood-opacity="0" result="BackgroundImageFix"/>
<feBlend mode="normal" in="SourceGraphic" in2="BackgroundImageFix" result="shape"/>
<feColorMatrix in="SourceAlpha" type="matrix" values="0 0 0 0 0 0 0 0 0 0 0 0 0 0 0 0 0 0 127 0" result="hardAlpha"/>
<feOffset dx="9" dy="10"/>
<feComposite in2="hardAlpha" operator="arithmetic" k2="-1" k3="1"/>
<feColorMatrix type="matrix" values="0 0 0 0 0 0 0 0 0 0 0 0 0 0 0 0 0 0 1 0"/>
<feBlend mode="normal" in2="shape" result="effect1_innerShadow_198_3436"/>
</filter>
<filter id="filter2_i_198_3436" x="628.445" y="206.408" width="106.238" height="224.394" filterUnits="userSpaceOnUse" color-interpolation-filters="sRGB">
<feFlood flood-opacity="0" result="BackgroundImageFix"/>
<feBlend mode="normal" in="SourceGraphic" in2="BackgroundImageFix" result="shape"/>
<feColorMatrix in="SourceAlpha" type="matrix" values="0 0 0 0 0 0 0 0 0 0 0 0 0 0 0 0 0 0 127 0" result="hardAlpha"/>
<feOffset dx="9" dy="10"/>
<feComposite in2="hardAlpha" operator="arithmetic" k2="-1" k3="1"/>
<feColorMatrix type="matrix" values="0 0 0 0 0 0 0 0 0 0 0 0 0 0 0 0 0 0 1 0"/>
<feBlend mode="normal" in2="shape" result="effect1_innerShadow_198_3436"/>
</filter>
<filter id="filter3_i_198_3436" x="664.41" y="340.891" width="48.1182" height="93.7568" filterUnits="userSpaceOnUse" color-interpolation-filters="sRGB">
<feFlood flood-opacity="0" result="BackgroundImageFix"/>
<feBlend mode="normal" in="SourceGraphic" in2="BackgroundImageFix" result="shape"/>
<feColorMatrix in="SourceAlpha" type="matrix" values="0 0 0 0 0 0 0 0 0 0 0 0 0 0 0 0 0 0 127 0" result="hardAlpha"/>
<feOffset dx="9" dy="10"/>
<feComposite in2="hardAlpha" operator="arithmetic" k2="-1" k3="1"/>
<feColorMatrix type="matrix" values="0 0 0 0 0 0 0 0 0 0 0 0 0 0 0 0 0 0 1 0"/>
<feBlend mode="normal" in2="shape" result="effect1_innerShadow_198_3436"/>
</filter>
</defs>
</svg>
