<?xml version="1.0" encoding="UTF-8" standalone="no"?>
<!DOCTYPE svg PUBLIC "-//W3C//DTD SVG 1.1//EN" "http://www.w3.org/Graphics/SVG/1.1/DTD/svg11.dtd">
<svg width="100%" height="100%" viewBox="0 0 1000 420" version="1.1" xmlns="http://www.w3.org/2000/svg" xmlns:xlink="http://www.w3.org/1999/xlink" xml:space="preserve" xmlns:serif="http://www.serif.com/" style="fill-rule:evenodd;clip-rule:evenodd;stroke-linejoin:round;stroke-miterlimit:2;">
    <g id="Sfondo">
        <path d="M0,0L999.999,0C1001.156,2.148 999.999,2.338 999.999,30.5L999.999,419.999C998.503,421.265 998.19,419.999 975.5,419.999L0,419.999C-0.929,418.273 -0,418.121 0,395.5L0,0Z" style="fill:rgb(254,254,254);"/>
        <path d="M455.821,90.49C459.328,121.167 468.078,119.471 474.281,129.607C474.521,130 478.386,161.458 481.709,180.46C486.09,205.517 485.835,205.91 487.696,207.046C488.171,207.336 492.818,208.214 493.45,205.489C494.173,202.369 493.305,202.312 495.504,165.5C495.956,157.944 495.938,158.004 496.346,150.491C496.385,149.783 496.799,142.179 497.629,141.726C499.472,140.721 505.78,144.315 517.517,142.762C521.442,142.243 519.023,147.154 515.839,159.589C504.693,203.125 500.923,207.502 504.363,208.817C510.239,211.064 510.301,207.654 519.959,188.718C529.934,169.16 542.635,138.881 544.477,134.49C547.564,127.131 556.474,131.882 566.73,103.585C571.785,107.804 572.488,106.592 577.743,110.59C548.479,179.291 504.206,216.46 517.519,212.566C519.69,211.931 567.85,166.104 588.104,128.279C588.475,127.587 588.442,127.588 592.646,119.577C596.948,123.853 596.871,123.802 601.574,127.535C589.653,149.213 578.873,159.929 569.157,171.218C564.929,176.13 545.429,195.253 531.1,206.136C498.485,230.909 558.424,194.825 582.388,167.408C614.339,130.855 609.057,120.255 612.785,115.757C612.94,115.569 614.909,114.531 614.143,118.477C607.716,151.568 574.376,180.388 569.552,184.559C536.741,212.922 532.143,207.253 513.856,226.836C511.021,229.871 510.305,259.352 507.753,277.535C507.231,281.248 506.167,280.849 502.491,280.674C499.932,280.553 472.915,279.274 470.548,278.385C469.277,277.907 469.815,273.013 469.866,272.546C470.253,269.024 471.883,254.191 474.32,228.485C475.862,212.217 456.899,209.633 424.836,163.28C391.301,114.798 400.292,78.24 401.68,77.796C406.787,76.164 395.547,84.977 410.988,125.289C426.113,164.778 467.673,211.564 470.294,210.131C475.126,207.49 435.72,173.341 415.119,106.607C420.465,103.159 422.232,104.739 427.804,99.424C438.666,151.677 474.651,207.643 475.703,208.124C476.264,208.381 481.157,209.136 479.887,205.379C474.677,189.961 455.159,148.659 447.098,94.553C447.7,94.265 447.898,93.412 448.5,93.124C452.074,91.411 452.425,92.529 455.821,90.49Z" style="fill:rgb(5,135,137);"/>
        <path d="M498.615,85.521C497.753,85.692 497.362,86.926 496.5,87.097C490.174,88.354 489.952,85.372 466.97,89.512C472.305,23.881 568.248,38.117 556.464,99.494C554.737,98.814 537.408,91.988 534.5,92.032C534.028,92.039 533.707,92.66 533.235,92.667C531.529,90.87 531.678,90.819 529.446,89.55C529.446,89.55 529.294,88.55 529.281,88.463L529.618,87.621C530.434,87.038 536.535,82.675 532.598,75.441C531.238,72.942 523.446,69.721 522.58,69.363C519.771,68.202 523.864,61.68 521.549,60.438C514.973,56.907 516.869,67.111 514.403,68.041C509.134,70.028 514.409,59.186 509.491,58.577C504.632,57.976 506.352,60.641 505.421,65.473C504.883,68.267 496.894,66.058 496.451,65.984C492.901,65.393 491.459,71.22 495.57,72.041C501.825,73.29 499.821,75.781 498.615,85.521Z" style="fill:rgb(2,169,158);"/>
        <path d="M498.615,85.521C497.711,91.99 496.986,96.591 496.835,97.552C496.001,102.846 491.097,99.181 489.781,101.658C486.094,108.594 493.922,107.142 497.42,107.866C501.176,108.643 497.295,115.782 499.671,117.153C505.646,120.602 503.891,110.112 506.471,109.397C511.1,108.116 508.797,111.415 508.807,116.5C508.813,119.422 512.864,118.989 513.591,118.666C516.912,117.192 511.248,110.559 519.499,110.435C530.9,110.264 537.817,103.075 533.235,92.667C533.707,92.66 534.028,92.039 534.5,92.032C537.408,91.988 554.737,98.814 556.464,99.494C555.234,103.452 547.054,129.78 516.498,132.474C488.483,134.944 468.919,112.492 467.407,95.509C467.229,93.513 467.148,91.508 466.97,89.512C489.952,85.372 490.174,88.354 496.5,87.097C497.362,86.926 497.753,85.692 498.615,85.521Z" style="fill:rgb(2,138,139);"/>
        <path d="M498.615,85.521C499.821,75.781 501.825,73.29 495.57,72.041C491.459,71.22 492.901,65.393 496.451,65.984C496.894,66.058 504.883,68.267 505.421,65.473C506.352,60.641 504.632,57.976 509.491,58.577C514.409,59.186 509.134,70.028 514.403,68.041C516.869,67.111 514.973,56.907 521.549,60.438C523.864,61.68 519.771,68.202 522.58,69.363C523.446,69.721 531.238,72.942 532.598,75.441C536.535,82.675 530.434,87.038 529.618,87.621C529.506,87.902 529.393,88.182 529.281,88.463C529.294,88.55 529.446,89.55 529.446,89.55C531.678,90.819 531.529,90.87 533.235,92.667C537.817,103.075 530.9,110.264 519.499,110.435C511.248,110.559 516.912,117.192 513.591,118.666C512.864,118.989 508.813,119.422 508.807,116.5C508.797,111.415 511.1,108.116 506.471,109.397C503.891,110.112 505.646,120.602 499.671,117.153C497.295,115.782 501.176,108.643 497.42,107.866C493.922,107.142 486.094,108.594 489.781,101.658C491.097,99.181 496.001,102.846 496.835,97.552C496.986,96.591 497.711,91.99 498.615,85.521Z" style="fill:rgb(246,250,250);"/>
        <path d="M455.821,90.49C452.425,92.529 452.074,91.411 448.5,93.124C447.898,93.412 447.7,94.265 447.098,94.553C446.6,90.494 433.365,16.879 483.491,10.415C488.257,9.8 497.234,9.572 491.272,12.109C476.461,18.412 475.251,48.417 472.014,52.023C467.309,57.264 456.392,67.076 455.821,90.49Z" style="fill:rgb(2,169,158);"/>
        <path d="M566.73,103.585C572.693,77.465 563.382,73.574 564.665,66.523C568.451,45.72 564.792,25.389 556.4,21.59C554.678,20.81 555.457,19.002 556.495,19.294C558.175,19.768 570.471,25.858 575.138,30.849C597.324,54.577 586.569,87.927 577.743,110.59C572.488,106.592 571.785,107.804 566.73,103.585Z" style="fill:rgb(3,169,158);"/>
        <path d="M280.171,394.489C284.863,353.015 284.624,353.036 285.123,349.446C285.733,345.06 287.335,345.425 300.495,345.71C318.671,346.104 316.529,362.922 308.302,368.283C304.746,370.599 312.838,370.275 313.201,379.51C314.051,401.112 288.542,397.261 287.5,397.26C282.772,397.252 280.701,399.248 280.171,394.489Z" style="fill:rgb(6,124,131);"/>
        <path d="M646.509,397.831C634.389,397.38 635.53,391.792 632.845,391.917C631.065,392 634.504,410.575 630.528,410.873C627.461,411.104 628.252,409.095 628.237,372.5C628.237,371.851 628.234,364.782 629.497,364.49C632.932,363.695 630.137,369.497 633.557,368.668C633.627,368.651 638.628,363.735 645.495,363.833C663.803,364.097 669.314,395.159 646.509,397.831Z" style="fill:rgb(15,126,133);"/>
        <path d="M427.804,99.424C422.232,104.739 420.465,103.159 415.119,106.607C405.411,68.982 410.262,41 443.446,22.348C448.265,19.639 448.433,21.983 448.171,22.255C447.112,23.354 437.445,25.689 429.699,44.573C428.808,46.745 424.607,56.988 424.744,73.495C424.818,82.443 427.442,97.366 427.804,99.424Z" style="fill:rgb(5,169,158);"/>
        <path d="M506.499,352.147C519.683,352.121 525.839,351.599 529.361,353.747C530.246,354.287 535.986,357.789 536.596,364.493C538.4,384.349 513.555,380.295 509.493,380.446C505.112,380.608 510.002,397.07 505.487,397.252C502.825,397.36 503.274,395.74 503.275,360.5C503.275,355.05 501.035,352.523 506.499,352.147Z" style="fill:rgb(10,124,131);"/>
        <path d="M601.504,397.847C572.468,396.505 583.709,356.084 607.349,364.906C622.782,370.665 623.094,396.164 601.504,397.847Z" style="fill:rgb(16,126,132);"/>
        <path d="M406.496,397.814C405.646,397.75 399.111,397.255 396.854,393.285C393.402,387.211 397.731,369.056 398.363,367.438C402.016,358.078 423.755,354.739 422.565,372.503C421.114,394.15 418.221,397.146 406.496,397.814Z" style="fill:rgb(6,124,131);"/>
        <path d="M513.497,35.702C508.721,35.866 506.354,36.369 506.85,33.563C507.406,30.419 507.505,30.518 508.074,27.418C510.806,12.532 511.361,10.373 520.5,10.322C539.149,10.217 538.991,19.726 538.713,39.53C538.662,43.156 536.824,41.046 533.43,39.694C523.924,35.909 523.706,36.854 513.497,35.702Z" style="fill:rgb(2,169,158);"/>
        <path d="M474.859,378.537C474.716,379.81 474.783,379.788 473.283,394.477C472.841,398.804 463.243,398.673 463.555,394.502C464.63,380.124 469.691,363.026 461.425,367.379C457.45,369.472 459.02,395.629 455.392,397.136C455.15,397.237 447.475,398.201 447.251,395.527C447.218,395.143 450.138,369.757 450.563,364.505C451.003,359.072 453.098,360.377 458.499,360.508C460.703,360.562 460.728,363.704 462.311,363.065C462.673,362.919 462.415,362.46 466.587,360.728C477.439,356.221 475.894,369.469 475.769,370.537C475.695,371.177 475.702,371.129 474.859,378.537Z" style="fill:rgb(7,124,131);"/>
        <path d="M693.525,392.476C693.119,391.976 690.127,388.298 689.507,385.498C683.79,359.666 720.977,357.031 723.332,378.516C724.068,385.233 719.711,381.868 695.495,382.457C691.327,382.559 695.4,389.583 697.606,391.372C708.399,400.124 717.375,389.535 717.495,389.487C726.915,385.76 710.56,408.149 693.525,392.476Z" style="fill:rgb(20,127,134);"/>
        <path d="M547.44,392.556C535.863,378.916 547.696,367.18 552.464,365.408C567.103,359.967 576.241,369.688 577.063,379.535C577.489,384.631 574.238,382.015 549.496,382.457C544.861,382.54 549.171,390.678 553.753,393.068C564.089,398.46 570.555,389.69 571.472,389.402C581.564,386.243 562.72,407.686 547.44,392.556Z" style="fill:rgb(19,127,134);"/>
        <path d="M592.646,119.577C600.45,102.176 604.318,92.44 604.242,72.505C604.187,58.23 594.732,48.875 597.454,48.873C599.524,48.871 622.82,76.798 608.084,113.339C604.165,123.056 602.837,125.018 601.574,127.535C596.871,123.802 596.948,123.853 592.646,119.577Z" style="fill:rgb(7,169,159);"/>
        <path d="M374.498,397.817C366.284,396.943 360.86,395.963 365.313,370.464C367.698,356.807 388.266,357.49 389.751,366.45C391.282,375.687 386.946,374.297 383.504,374.299C380.094,374.301 380.9,372.876 380.957,369.477C381.013,366.218 375.956,364.421 374.755,370.55C374.46,372.051 371.785,385.699 373.23,389.612C373.454,390.219 377.542,394.986 379.503,384.501C379.924,382.248 390.104,380.06 388.236,387.447C385.606,397.849 379.265,397.523 374.498,397.817Z" style="fill:rgb(6,124,130);"/>
        <path d="M344.362,353.489C345.203,348.104 347.087,349.316 352.494,349.541C356.808,349.721 350.723,359.969 355.502,360.484C362.195,361.205 357.81,366.458 356.509,366.58C354.88,366.734 352.618,365.321 351.81,372.547C350.008,388.67 350.187,390.065 353.518,390.347C358.846,390.799 355.492,397.179 353.499,397.497C336.034,400.285 341.068,383.817 341.255,381.478C342.248,369.022 343.757,367.843 340.489,366.526C338.325,365.655 339.446,361.284 340.658,360.799C344.832,359.131 343.633,357.976 344.362,353.489Z" style="fill:rgb(6,124,131);"/>
        <path d="M594.543,392.43C581.13,382.226 591.375,367.039 601.502,367.426C621.788,368.202 614.992,402.842 594.543,392.43Z" style="fill:rgb(251,252,253);"/>
        <path d="M632.372,383.501C632.48,375.717 632.275,375.689 632.719,374.572C636.492,365.091 653.551,365.391 656.54,376.487C661.839,396.159 634.41,400.449 632.372,383.501Z" style="fill:rgb(251,253,253);"/>
        <path d="M507.533,360.5C507.769,357.55 506.647,356.44 509.541,355.837C509.725,355.799 521.948,355.823 522.493,355.827C529.8,355.884 532.649,362.628 532.403,366.497C531.714,377.337 523.434,377.222 509.481,376.62C506.776,376.503 507.532,369.817 507.533,360.5Z" style="fill:rgb(250,252,252);"/>
        <path d="M438.815,389.532C438.507,392.59 439.211,397.241 435.493,397.259C434.953,397.262 429.248,397.291 428.81,396.334C428.469,395.59 431.967,362.432 432.593,361.548C433.707,359.972 441.797,359.471 441.717,362.489C441.557,368.539 439.097,387.374 438.815,389.532Z" style="fill:rgb(8,124,131);"/>
        <path d="M322.17,373.477C322.259,372.519 323.234,362.041 323.584,361.543C324.346,360.461 329.94,360.502 330.5,360.506C334.719,360.537 332.015,365.359 329.471,394.497C329.096,398.802 320.428,397.634 319.833,396.325C319.322,395.2 322.091,373.989 322.17,373.477Z" style="fill:rgb(6,124,130);"/>
        <path d="M560.507,367.073C561.781,367.299 573.019,369.295 572.86,377.504C572.821,379.496 571.012,379.353 570.493,379.357C548.762,379.525 547.997,380.307 547.368,378.566C546.885,377.226 548.106,373.469 550.78,370.773C554.053,367.473 559.676,367.124 560.507,367.073Z" style="fill:rgb(250,252,252);"/>
        <path d="M706.505,367.07C707.811,367.217 718.046,368.365 719.175,377.513C719.402,379.351 716.756,379.358 716.495,379.359C695.173,379.414 692.824,379.922 693.624,376.527C695.658,367.901 705.231,367.168 706.505,367.07Z" style="fill:rgb(250,252,252);"/>
        <path d="M477.533,234.502C478.356,227.074 478.306,227.115 478.421,226.48C479.122,222.628 490.6,224.263 490.6,224.263C491.755,224.658 492.562,225.053 490.635,239.525C490.232,242.553 484.411,241.453 480.53,241.086C476.122,240.669 477.391,238.913 477.533,234.502Z" style="fill:rgb(247,251,251);"/>
        <path d="M500.49,242.662C500.001,242.621 494.621,242.974 494.139,240.604C494.005,239.946 494.666,231.685 494.935,229.545C495.805,222.63 498.754,224.707 505.402,226.818C509.54,228.133 508.42,231.967 507.683,239.521C507.215,244.318 505.315,243.009 500.49,242.662Z" style="fill:rgb(247,251,251);"/>
        <path d="M678.504,397.825C670.039,396.678 671.5,393.273 671.5,366.5C671.5,363.225 670.297,347.645 674.744,351.094C677.62,353.325 673.277,391.35 677.395,393.644C679.856,395.015 685.309,392.698 683.566,396.546C683.167,397.425 678.92,397.789 678.504,397.825Z" style="fill:rgb(14,126,132);"/>
        <path d="M506.871,98.544C507.193,96.528 506.977,90.107 510.484,90.684C514.232,91.301 520.886,92.245 522.507,95.496C526.167,102.84 515.379,103.073 514.496,103.092C508.97,103.211 506.729,104.137 506.871,98.544Z" style="fill:rgb(7,139,140);"/>
        <path d="M292.651,376.516C293.234,372.473 294.472,372.649 298.442,373.732C305.057,375.537 306.392,390.216 293.516,390.278C290.592,390.292 291.371,386.349 292.651,376.516Z" style="fill:rgb(246,250,250);"/>
        <path d="M405.537,381.503C406.807,371.431 406.695,371.432 406.817,370.559C407.438,366.081 411.868,364.706 413.08,368.596C413.45,369.784 412.118,398.561 405.641,390.402C404.282,388.69 405.066,388.512 405.537,381.503Z" style="fill:rgb(243,248,248);"/>
        <path d="M298.499,352.525C298.773,352.583 305.208,352.521 304.907,358.522C304.412,368.379 293.959,367.847 294.013,364.538C294.041,362.835 294.937,354.561 295.458,353.474C295.846,352.663 298.244,352.538 298.499,352.525Z" style="fill:rgb(246,250,250);"/>
        <path d="M514.462,74.722C527.643,77.253 522.782,85.132 516.496,85.384C510.976,85.605 508.973,85.252 509.185,82.478C509.624,76.758 508.711,74.452 514.462,74.722Z" style="fill:rgb(8,169,158);"/>
        <path d="M328.5,347.207C332.81,347.338 333.97,345.863 334.504,348.499C335.643,354.115 331.05,354.12 330.498,354.12C325.17,354.125 323.115,353.68 324.776,348.588C325.481,346.426 326.243,347.472 328.5,347.207Z" style="fill:rgb(15,126,133);"/>
        <path d="M438.5,347.207C440.08,347.285 444.715,345.683 443.027,352.336C442.461,354.565 433.297,355.918 433.485,351.5C433.734,345.657 436.186,347.409 438.5,347.207Z" style="fill:rgb(15,126,132);"/>
    </g>
</svg>
