<?xml version="1.0" encoding="UTF-8" standalone="no"?>
<!DOCTYPE svg PUBLIC "-//W3C//DTD SVG 1.1//EN" "http://www.w3.org/Graphics/SVG/1.1/DTD/svg11.dtd">
<svg width="100%" height="100%" viewBox="0 0 1000 420" version="1.1" xmlns="http://www.w3.org/2000/svg" xmlns:xlink="http://www.w3.org/1999/xlink" xml:space="preserve" xmlns:serif="http://www.serif.com/" style="fill-rule:evenodd;clip-rule:evenodd;stroke-linejoin:round;stroke-miterlimit:2;">
    <g id="Sfondo">
        <path d="M0,0L999.999,0C1001.156,2.148 999.999,2.338 999.999,30.5L999.999,419.999C998.503,421.265 998.19,419.999 975.5,419.999L0,419.999C-0.929,418.273 -0,418.121 0,395.5L0,0Z" style="fill:rgb(254,254,254);"/>
        <path d="M166.078,195.099C169.014,186.867 165.639,120.851 167.867,118.973C168.472,118.462 204.995,117.494 206.441,119.527C207.434,120.923 205.687,153.074 207.484,153.617C208.302,153.864 247.926,133.596 284.24,165.803C320.235,197.727 312.786,265.354 258.64,282.999C223.594,294.419 192.247,277.152 177.862,254.277C177.526,253.742 175.046,247.798 172.928,250.835C117.167,330.762 14.886,263.035 47.434,188.47C58.113,164.004 84.642,146.573 112.5,147.485C114.347,147.546 135.842,147.202 155.102,162.913C157.611,164.96 155.144,165.581 135.163,192.252C129.595,199.685 127.893,183.767 104.496,187.474C79.881,191.375 67.886,233.651 102.348,245.938C121.76,252.859 135.216,235.47 137.026,233.131C160.444,202.87 163.831,198.198 166.078,195.099Z" style="fill:rgb(82,182,127);"/>
        <path d="M872.285,261.319C872.645,259.863 872.512,259.839 872.512,215.5C872.512,173.122 872.141,171.73 874.514,171.691C921.647,170.907 928.935,173.284 933.421,174.747C958.368,182.883 957.119,208.948 955.462,214.491C951.199,228.745 944.818,231.139 939.655,234.72C936.879,236.646 940.308,239.793 941.013,240.823C956.451,263.356 958.329,263.974 956.375,265.196C956.374,265.197 934.397,265.009 932.486,264.993C930.473,264.976 929.94,264.971 916.846,245.269C911.658,237.463 909.857,239.934 900.465,240.099C894.331,240.206 900.385,263.317 896.375,265C894.617,265.738 852.337,265.114 848.508,265.058C842.696,264.972 842.094,248.661 837.357,246.918C835.309,246.164 804.37,246.693 801.502,246.742C795.098,246.851 795.224,255.485 791.213,263.366C790.35,265.06 789.902,265.393 767.512,265.092C767.254,265.089 764.347,265.05 765.561,262.524C770.876,251.461 770.677,251.401 788.991,209.735C804.888,173.569 804.172,172.149 807.529,171.74C808.27,171.65 828.543,171.665 829.472,171.738C831.096,171.866 831.619,171.908 839.162,189.65C840.946,193.848 855.348,226.2 856.762,229.375C870.33,259.852 869.531,261.31 872.285,261.319Z" style="fill:rgb(2,19,14);"/>
        <path d="M497.488,266.386C490.119,266.547 465.217,270.411 447.033,248.884C420.655,217.654 444.59,159.28 503.413,171.832C506.223,172.432 543.636,182.888 539.676,223.514C536.211,259.07 505.056,264.676 497.488,266.386Z" style="fill:rgb(2,19,14);"/>
        <path d="M727.5,171.687C737.369,172.59 770.725,171.669 764.335,203.451C762.966,210.259 752.526,215.627 753.993,217.105C756.276,219.406 767.411,220.477 770.207,237.541C771.022,242.516 768.293,255.038 757.374,260.246C746.249,265.551 745.824,264.86 683.518,265.073C680.929,265.081 681.367,263.569 681.367,226.5C681.367,173.011 681.169,172.448 682.581,171.782C682.819,171.67 682.816,171.687 727.5,171.687Z" style="fill:rgb(1,19,14);"/>
        <path d="M663.5,171.687C668.683,171.769 669.298,170.688 670.296,172.631C671.36,174.704 670.627,255.313 670.561,262.503C670.528,266.154 665.663,264.779 652.503,265.051C648.185,265.14 645.309,259.654 636.185,248.762C609.442,216.835 608.51,213.067 607.26,216.312C606.639,217.923 607.957,263.158 606.552,264.558C606.001,265.108 583.765,265.646 582.835,264.24C582.361,263.525 582.486,263.418 582.473,178.5C582.473,178.051 581.538,171.734 584.513,171.691C604.009,171.413 603.898,172.716 604.073,172.92C624.18,196.411 623.329,197.034 643.453,220.561C645.744,223.24 645.998,220.56 646.017,220.355C646.197,218.463 645.008,172.807 646.691,171.913C647.26,171.611 652.568,171.687 663.5,171.687Z" style="fill:rgb(1,18,14);"/>
        <path d="M396.498,191.474C367.389,194.024 367.733,238.474 391.444,244.672C417.155,251.394 419.849,232.314 425.083,236.983C437.82,248.346 438.245,248.046 438.548,249.484C439.734,255.111 406.959,277.045 374.509,261.483C342.549,246.157 342.487,204.978 359.754,186.74C383.586,161.568 421.759,167.497 438.103,185.796C439.838,187.739 435.351,190.684 425.13,200.067C420.215,204.578 418.376,188.551 396.498,191.474Z" style="fill:rgb(2,19,14);"/>
        <path d="M207.688,205.647C208.245,204.852 213.196,197.781 214.984,195.948C226.871,183.759 243.132,187.21 244.467,187.659C282.047,200.292 267.696,246.494 238.495,247.308C210.43,248.091 202.754,218.204 207.688,205.647Z" style="fill:rgb(253,254,253);"/>
        <path d="M552.5,171.687C565.67,171.687 570.898,171.033 571.068,173.544C571.086,173.809 571.074,252.735 571.077,257.5C571.081,262.585 572.042,262.86 570.467,264.464C569.542,265.406 562.906,264.798 548.508,265.06C545.106,265.122 545.851,263.213 545.851,239.5C545.851,172.777 545.728,172.37 546.676,171.897C547.094,171.688 547.105,171.881 552.5,171.687Z" style="fill:rgb(5,22,17);"/>
        <path d="M492.502,191.478C518.425,194.452 524.753,237.908 493.495,245.479C463.467,252.753 447.277,205.001 480.36,192.07C486.138,189.811 486.245,190.948 492.502,191.478Z" style="fill:rgb(252,252,252);"/>
        <path d="M917.472,220.166C897.784,222.713 897.756,219.085 897.744,217.492C897.554,192.374 898.206,191.913 899.533,191.651C900.394,191.482 915.308,191.466 917.45,191.908C935.324,195.595 935.195,217.63 917.472,220.166Z" style="fill:rgb(248,249,249);"/>
        <path d="M733.505,246.591C721.851,248.019 711.438,247.272 709.524,247.134C707.054,246.957 706.893,245.891 707.103,229.484C707.15,225.795 710.838,226.705 727.5,226.709C728.765,226.709 739.529,226.711 742.594,231.438C745.841,236.444 745.606,245.608 733.505,246.591Z" style="fill:rgb(248,248,248);"/>
        <path d="M707.105,195.5C707.289,191.617 706.64,190.18 710.497,190.17C727.358,190.127 737.606,188.572 739.742,198.472C742.674,212.059 715.692,209.682 709.497,209.55C706.131,209.479 707.108,202.436 707.105,195.5Z" style="fill:rgb(249,249,249);"/>
        <path d="M808.439,220.477C817.385,198.459 817.471,196.893 819.137,197.986C819.181,198.015 830.376,225.675 830.426,226.506C830.535,228.348 829.712,229.627 807.466,228.637C804.187,228.491 807.817,222.031 808.439,220.477Z" style="fill:rgb(243,243,243);"/>
    </g>
</svg>
