<svg id="Livello_1" data-name="Livello 1" xmlns="http://www.w3.org/2000/svg" viewBox="0 0 1305.74 542.31"><defs><style>.cls-1{fill:#0bddc8;}.cls-2{fill:#ffb000;}.cls-3,.cls-5,.cls-6{fill:#031a44;}.cls-4{fill:none;}.cls-4,.cls-6{stroke:#ffb000;}.cls-4,.cls-5,.cls-6{stroke-miterlimit:10;stroke-width:2.83px;}.cls-5{stroke:#0bddc8;}</style></defs><path class="cls-1" d="M684.59,197.68l20.82-.09v-2.92a33,33,0,0,0-1.23-10.14,10.14,10.14,0,0,0-3.79-5.39A13.93,13.93,0,0,0,693.9,177a92.17,92.17,0,0,0-9.31-.41,41.46,41.46,0,0,0-9.55.87,11.27,11.27,0,0,0-5.21,2.51,7.35,7.35,0,0,0-2.14,3.88,25,25,0,0,0-.46,5.07H649.78q0-29.59,34.81-29.78,3.74,0,8.72.32a41.76,41.76,0,0,1,10.09,2,27.71,27.71,0,0,1,9.55,5.43,27,27,0,0,1,7.17,10.51q2.75,6.7,2.74,17.31V215l-38.27.09a65.25,65.25,0,0,0-12.06.86,15.7,15.7,0,0,0-6.17,2.29,5.38,5.38,0,0,0-2.23,3.06,13.91,13.91,0,0,0-.37,3.1A14.78,14.78,0,0,0,665,231c.85,1.74,2.75,3,5.71,3.89s7.53,1.27,13.74,1.27q5.22,0,8.86-.31a24.11,24.11,0,0,0,6-1.19,8.63,8.63,0,0,0,3.7-2.42,8.74,8.74,0,0,0,1.83-3.93,29.16,29.16,0,0,0,.5-5.85h17.45v29.78H705.41V238.33a42.74,42.74,0,0,1-5,7.63,24.81,24.81,0,0,1-6.48,5.29,18.31,18.31,0,0,1-9.46,2.33q-3.11,0-7.9-.27a53.7,53.7,0,0,1-10-1.6,30.51,30.51,0,0,1-9.82-4.43,23.32,23.32,0,0,1-7.49-8.63q-2.93-5.53-2.93-14.21,0-8,3-13.1a22.36,22.36,0,0,1,7.72-7.91,34.54,34.54,0,0,1,10-4.06,55.52,55.52,0,0,1,10-1.46Q681.75,197.69,684.59,197.68Z"/><path class="cls-1" d="M777.57,253.58A31.81,31.81,0,0,1,761,249.15a33.3,33.3,0,0,1-11.92-11.92,31.88,31.88,0,0,1-4.43-16.53V117.48h17.45v44.3h45v17.45h-45V220.7a15.43,15.43,0,0,0,15.43,15.43h5.48a15.43,15.43,0,0,0,15.44-15.43h17.45a31.88,31.88,0,0,1-4.43,16.53,33.37,33.37,0,0,1-11.92,11.92,31.85,31.85,0,0,1-16.54,4.43Z"/><path class="cls-1" d="M863.71,197.68l20.83-.09v-2.92a32.63,32.63,0,0,0-1.24-10.14,10.08,10.08,0,0,0-3.79-5.39A13.85,13.85,0,0,0,873,177a92.38,92.38,0,0,0-9.32-.41,41.36,41.36,0,0,0-9.54.87A11.22,11.22,0,0,0,849,180a7.37,7.37,0,0,0-2.15,3.88,25.83,25.83,0,0,0-.45,5.07H828.91q0-29.59,34.8-29.78c2.5,0,5.4.11,8.73.32a41.86,41.86,0,0,1,10.09,2,27.58,27.58,0,0,1,9.54,5.43,26.74,26.74,0,0,1,7.17,10.51q2.75,6.7,2.74,17.31V215l-38.27.09a65.32,65.32,0,0,0-12.06.86,15.64,15.64,0,0,0-6.16,2.29,5.4,5.4,0,0,0-2.24,3.06,14.48,14.48,0,0,0-.36,3.1,14.78,14.78,0,0,0,1.27,6.53c.86,1.74,2.76,3,5.71,3.89s7.54,1.27,13.75,1.27q5.21,0,8.86-.31a24.21,24.21,0,0,0,6-1.19,8.75,8.75,0,0,0,3.7-2.42,8.85,8.85,0,0,0,1.83-3.93,29.16,29.16,0,0,0,.5-5.85H902v29.78H884.54V238.33a43.86,43.86,0,0,1-5,7.63,25,25,0,0,1-6.49,5.29,18.27,18.27,0,0,1-9.45,2.33q-3.11,0-7.9-.27a53.67,53.67,0,0,1-10.05-1.6,30.7,30.7,0,0,1-9.82-4.43,23.5,23.5,0,0,1-7.49-8.63q-2.93-5.53-2.92-14.21,0-8,3-13.1a22.36,22.36,0,0,1,7.72-7.91,34.72,34.72,0,0,1,10-4.06,55.39,55.39,0,0,1,10-1.46C859.3,197.76,861.82,197.68,863.71,197.68Z"/><path class="cls-2" d="M684.59,366.93l20.82-.09v-2.92a33.07,33.07,0,0,0-1.23-10.14,10.22,10.22,0,0,0-3.79-5.39,14,14,0,0,0-6.49-2.14,89,89,0,0,0-9.31-.42,41.46,41.46,0,0,0-9.55.87,11.37,11.37,0,0,0-5.21,2.51,7.38,7.38,0,0,0-2.14,3.89,25,25,0,0,0-.46,5.07H649.78q0-29.6,34.81-29.78,3.74,0,8.72.32a41.74,41.74,0,0,1,10.09,2,27.74,27.74,0,0,1,9.55,5.44,26.84,26.84,0,0,1,7.17,10.5q2.75,6.72,2.74,17.31v20.37l-38.27.09a64.22,64.22,0,0,0-12.06.87,15.88,15.88,0,0,0-6.17,2.28,5.44,5.44,0,0,0-2.23,3.06,14,14,0,0,0-.37,3.11,14.81,14.81,0,0,0,1.28,6.53q1.28,2.61,5.71,3.88t13.74,1.28c3.48,0,6.43-.1,8.86-.32a23.67,23.67,0,0,0,6-1.19,8.54,8.54,0,0,0,3.7-2.42,8.65,8.65,0,0,0,1.83-3.92,29.3,29.3,0,0,0,.5-5.85h17.45v29.78H705.41V407.58a42.38,42.38,0,0,1-5,7.63,24.64,24.64,0,0,1-6.48,5.3,18.4,18.4,0,0,1-9.46,2.33q-3.11,0-7.9-.28a53.65,53.65,0,0,1-10-1.59,30.53,30.53,0,0,1-9.82-4.44,23.16,23.16,0,0,1-7.49-8.63q-2.93-5.52-2.93-14.2,0-8,3-13.11a22.33,22.33,0,0,1,7.72-7.9,34.57,34.57,0,0,1,10-4.07,56.42,56.42,0,0,1,10-1.46Q681.75,366.93,684.59,366.93Z"/><path class="cls-2" d="M790.82,328.39a41.63,41.63,0,0,1,21.65,5.8A44,44,0,0,1,828,349.76a41.63,41.63,0,0,1,5.8,21.65v8.22q0,17.26-12.6,30.51-13.15,12.51-30.42,12.51a42.51,42.51,0,0,1-25.58-8.58v44.57H747.8V329.76h17.44V337a44.49,44.49,0,0,1,11.88-6.3A41,41,0,0,1,790.82,328.39Zm25.57,51.24v-8.22a25.58,25.58,0,1,0-51.15,0v8.22a24.38,24.38,0,0,0,7.36,17.95,25.7,25.7,0,0,0,18.22,7.63,25.57,25.57,0,0,0,25.57-25.58Z"/><path class="cls-2" d="M871,306.28a11.08,11.08,0,1,1-7.86-3.29A10.73,10.73,0,0,1,871,306.28Zm.82,116.56V330.76H854.39v92.08Z"/><path class="cls-2" d="M934.87,424.21q-18.09,0-31.88-13.25-13.25-13.79-13.25-31.88v-6.94a43.53,43.53,0,0,1,6.08-22.65,46.23,46.23,0,0,1,16.35-16.35,43.54,43.54,0,0,1,22.7-6.12h4.29a40.82,40.82,0,0,1,21,6.07,43.32,43.32,0,0,1,14.89,15.58,42.78,42.78,0,0,1,5.57,21.55v14.44H908.29a26.55,26.55,0,0,0,7.4,13.61,27,27,0,0,0,19.18,7.94h4.29q16.44-.54,24.3-15l16.07,8a44.82,44.82,0,0,1-16.62,18.18,45.78,45.78,0,0,1-23.75,6.76Zm0-79.2a26.09,26.09,0,0,0-17.22,6.12,27,27,0,0,0-9.36,15.62h54.16a26.35,26.35,0,0,0-7.81-15.34,22.21,22.21,0,0,0-15.2-6.4Z"/><path class="cls-2" d="M1042.29,331.13q14.06,0,24.94,10.32,10.3,10.79,10.32,24.94v56.45H1060.1V366.39a17.79,17.79,0,0,0-17.81-17.82h-9.41a18.26,18.26,0,0,0-12.7,5.39,17,17,0,0,0-5.11,12.52v56.36H997.62V366.48a34.09,34.09,0,0,1,4.75-17.77,35.56,35.56,0,0,1,30.42-17.58h9.5Z"/><path class="cls-2" d="M1186.34,392.15a37.26,37.26,0,0,1-1.78,11.14,25.39,25.39,0,0,1-6.49,10.37q-4.71,4.69-13.2,7.62T1143,424.21q-4.2,0-10.19-.28a65,65,0,0,1-12.28-1.78,39.15,39.15,0,0,1-11.74-4.89,26.18,26.18,0,0,1-8.91-9.45q-3.46-6.07-3.47-15.66h17.91a14.3,14.3,0,0,0,2,8q2.06,3.12,8.22,4.57t18.41,1.46a74.83,74.83,0,0,0,9.36-.5,36.31,36.31,0,0,0,6.76-1.42,18.82,18.82,0,0,0,4.52-2.05,10.73,10.73,0,0,0,2.74-2.47,8.7,8.7,0,0,0,1.42-2.65,11.68,11.68,0,0,0,.5-2.6q.09-1.27.09-2.37a4.91,4.91,0,0,0-1.69-3.93c-1.13-1-3.41-1.75-6.85-2.33a125.19,125.19,0,0,0-15.12-1.23c-3.65-.13-7.53-.35-11.64-.69a70.44,70.44,0,0,1-12.11-2.05,37.44,37.44,0,0,1-10.82-4.71,22.85,22.85,0,0,1-7.81-8.59q-2.92-5.43-2.92-13.93a29.27,29.27,0,0,1,1.69-9.63,21.34,21.34,0,0,1,6.25-8.95q4.58-4.07,12.75-6.58t21.14-2.51q14.34,0,23,3.1t13.2,7.9a24.79,24.79,0,0,1,6,10.05,35.14,35.14,0,0,1,1.51,9.55h-17.91a17.59,17.59,0,0,0-.23-2.51,8,8,0,0,0-1.41-3.34,11.66,11.66,0,0,0-3.93-3.29,26.12,26.12,0,0,0-7.63-2.51,67.79,67.79,0,0,0-12.65-1,85.87,85.87,0,0,0-10,.5,37.33,37.33,0,0,0-6.75,1.37,14.53,14.53,0,0,0-4.12,2,7.88,7.88,0,0,0-2.1,2.19,5.83,5.83,0,0,0-.77,2.06,12,12,0,0,0-.14,1.59q0,4.49,2.28,6.9c1.53,1.62,4.33,2.8,8.41,3.56a127.6,127.6,0,0,0,17.44,1.6q6.22.19,13.25.92a52.41,52.41,0,0,1,13.29,3.1,23.85,23.85,0,0,1,10.32,7.45Q1186.34,383.29,1186.34,392.15Z"/><path class="cls-3" d="M532.85,255a11.61,11.61,0,0,1,0-23.21h26.08a59.56,59.56,0,1,0,0-119.12H532.85a11.61,11.61,0,0,1,0-23.22h26.08a82.78,82.78,0,0,1,0,165.55Z"/><path class="cls-1" d="M558.93,90.87a81.36,81.36,0,0,1,0,162.71H532.85a10.19,10.19,0,0,1,0-20.38h26.08a61,61,0,0,0,0-121.95H532.85a10.19,10.19,0,0,1,0-20.38h26.08m0-2.83H532.85a13,13,0,0,0,0,26.05h26.08a58.14,58.14,0,1,1,0,116.28H532.85a13,13,0,0,0,0,26.05h26.08a84.19,84.19,0,1,0,0-168.38Z"/><path class="cls-3" d="M579.94,293.71c7.53.4,16.41,1.16,25.16,3.77a9,9,0,0,0,2.55.37,8.92,8.92,0,0,0,2.55-17.46c-10.55-3.14-20.74-4-29.32-4.49a8.92,8.92,0,0,0-.94,17.81Z"/><path class="cls-4" d="M579.94,293.71c7.53.4,16.41,1.16,25.16,3.77a9,9,0,0,0,2.55.37,8.92,8.92,0,0,0,2.55-17.46c-10.55-3.14-20.74-4-29.32-4.49a8.92,8.92,0,0,0-.94,17.81Z"/><path class="cls-3" d="M586.19,343.76a8.35,8.35,0,0,0-1.13-.08H582.7a9.37,9.37,0,0,0-1.3-.11H558.69a24.93,24.93,0,1,1,0-49.85,8.92,8.92,0,0,0,0-17.83,42.76,42.76,0,1,0,0,85.51h2a8.75,8.75,0,0,0,1.63.16h22.71a24.93,24.93,0,1,1,0,49.86,8.91,8.91,0,1,0,0,17.82,42.75,42.75,0,0,0,1.13-85.48Z"/><path class="cls-4" d="M586.19,343.76a8.35,8.35,0,0,0-1.13-.08H582.7a9.37,9.37,0,0,0-1.3-.11H558.69a24.93,24.93,0,1,1,0-49.85,8.92,8.92,0,0,0,0-17.83,42.76,42.76,0,1,0,0,85.51h2a8.75,8.75,0,0,0,1.63.16h22.71a24.93,24.93,0,1,1,0,49.86,8.91,8.91,0,1,0,0,17.82,42.75,42.75,0,0,0,1.13-85.48Z"/><path class="cls-3" d="M563.81,411.43c-7.53-.4-16.4-1.16-25.16-3.77a8.91,8.91,0,0,0-5.1,17.08c10.55,3.15,20.74,4,29.32,4.49h.48a8.91,8.91,0,0,0,.46-17.81Z"/><path class="cls-4" d="M563.81,411.43c-7.53-.4-16.4-1.16-25.16-3.77a8.91,8.91,0,0,0-5.1,17.08c10.55,3.15,20.74,4,29.32,4.49h.48a8.91,8.91,0,0,0,.46-17.81Z"/><path class="cls-5" d="M304.21,321.84H266.83a115.49,115.49,0,1,1,0-231h37.38a13.45,13.45,0,1,1,0,26.9H266.83a88.59,88.59,0,1,0,0,177.17h37.38a13.45,13.45,0,1,1,0,26.9Z"/><path class="cls-6" d="M374.25,308.55a64.58,64.58,0,0,1-64.51,64.51,13.45,13.45,0,0,1,0-26.9,37.61,37.61,0,1,0,0-75.21H275.48a13.6,13.6,0,0,1-2.13-.17h.56l-.48-.07H270c-.53,0-1,0-1.56,0a64.5,64.5,0,0,1,1.56-129,13.45,13.45,0,1,1,0,26.9,37.61,37.61,0,1,0,0,75.22h34.26a12.69,12.69,0,0,1,2,.16h-.59l.59.08h3.47l1.66,0A64.57,64.57,0,0,1,374.25,308.55Z"/><path class="cls-3" d="M306.27,244a3.25,3.25,0,0,1,.43.08h-.43l-.59-.08Z"/><path class="cls-3" d="M273.91,270.78h-4a11.46,11.46,0,0,1-1.56-.1c.51,0,1,0,1.56,0h3.47Z"/><path class="cls-6" d="M343.83,174.82a13.54,13.54,0,0,1-3.85-.56c-13.21-3.94-26.6-5.09-38-5.69a13.45,13.45,0,1,1,1.42-26.86c12.94.68,28.32,2,44.23,6.77a13.45,13.45,0,0,1-3.84,26.34Z"/><path class="cls-6" d="M454.7,303.8a13.45,13.45,0,0,1-13.45-13.45c0-38.44-25.94-77.34-67.69-101.52A13.45,13.45,0,0,1,387,165.55c50,29,81.11,76.8,81.11,124.8A13.45,13.45,0,0,1,454.7,303.8Z"/><path class="cls-6" d="M423.3,162.89a13.38,13.38,0,0,1-9.1-3.55A158.3,158.3,0,0,0,344,122a13.45,13.45,0,0,1,6.06-26.2c29.92,6.91,59.16,22.46,82.33,43.76a13.45,13.45,0,0,1-9.11,23.35Z"/><path class="cls-5" d="M312.87,423.88H275.48a13.45,13.45,0,0,1,0-26.9h37.39a88.59,88.59,0,1,0,0-177.17H275.48a13.45,13.45,0,0,1,0-26.9h37.39a115.49,115.49,0,1,1,0,231Z"/><path class="cls-3" d="M273.91,270.78h-.56l-.35-.07h.43Z"/><path class="cls-3" d="M309.74,244a15.1,15.1,0,0,1,1.66.1l-1.66,0h-3.47l-.59-.08Z"/><path class="cls-6" d="M277,373.06l-.72,0c-12.94-.68-28.31-2-44.23-6.77a13.45,13.45,0,0,1,7.69-25.78c13.21,3.94,26.61,5.09,38,5.69a13.45,13.45,0,0,1-.7,26.88Z"/><path class="cls-6" d="M199.39,351a13.38,13.38,0,0,1-6.73-1.82c-50-29-81.11-76.79-81.11-124.79a13.45,13.45,0,1,1,26.9,0c0,38.43,25.94,77.33,67.69,101.52A13.45,13.45,0,0,1,199.39,351Z"/><path class="cls-6" d="M232.66,419.32a13.26,13.26,0,0,1-3-.35c-29.93-6.92-59.16-22.46-82.33-43.77a13.45,13.45,0,0,1,18.21-19.8,158.1,158.1,0,0,0,70.18,37.36,13.45,13.45,0,0,1-3,26.56Z"/></svg>