<?xml version="1.0" encoding="UTF-8" standalone="no"?>
<!DOCTYPE svg PUBLIC "-//W3C//DTD SVG 1.1//EN" "http://www.w3.org/Graphics/SVG/1.1/DTD/svg11.dtd">
<svg width="100%" height="100%" viewBox="0 0 1000 420" version="1.1" xmlns="http://www.w3.org/2000/svg" xmlns:xlink="http://www.w3.org/1999/xlink" xml:space="preserve" xmlns:serif="http://www.serif.com/" style="fill-rule:evenodd;clip-rule:evenodd;stroke-linejoin:round;stroke-miterlimit:2;">
    <g id="Sfondo">
        <path d="M975.5,419.999L-0,419.999C-1.027,418.092 0,415.666 0,413.5L0,0C1.496,-1.266 1.81,0 24.5,0L999.999,0C1001.156,2.148 999.999,2.338 999.999,30.5L999.999,419.999C998.503,421.265 998.19,419.999 975.5,419.999Z" style="fill:rgb(254,254,254);"/>
        <path d="M451.493,8.485C453.347,9.474 453.266,9.415 453.365,9.509C453.126,10.884 451.702,19.069 449.782,26.583C447.347,36.115 445.465,47.052 445.345,47.459C444.224,51.255 437.06,86.741 434.161,99.43C433.338,103.036 412.378,117.894 406.718,122.768C401.295,127.437 320.085,192.258 306.46,203.368C306.355,202.995 305.481,203.322 305.376,202.949C305.211,202.366 305.87,201.8 305.846,201.195C305.807,200.22 300.412,181.658 301.979,178.767C302.889,177.089 357.732,112.35 362.606,106.596C419.262,39.718 419.835,40.058 423.229,33.243C432.972,22.409 442.05,17.3 451.493,8.485Z" style="fill:rgb(244,159,49);"/>
        <path d="M423.229,33.243C419.835,40.058 419.262,39.718 362.606,106.596C357.732,112.35 302.889,177.089 301.979,178.767C300.412,181.658 305.807,200.22 305.846,201.195C305.87,201.8 305.211,202.366 305.376,202.949C305.481,203.322 306.355,202.995 306.46,203.368C305.906,203.78 305.596,204.011 299.669,208.698C295.668,211.861 302.139,216.899 312.757,229.053L311.699,231.49C311.324,232.092 310.949,232.694 310.575,233.296C307.901,230.403 307.467,231.244 303.507,231.448C302.486,230.901 301.465,230.354 300.444,229.807C297.668,229.794 297.686,229.8 297.446,229.793C295.788,229.748 295.969,228.628 294.521,228.395C289.79,227.633 289.84,228.725 289.442,228.641C289.352,228.622 289.845,226.618 284.503,227.181C284.259,227.138 281.575,226.664 281.459,226.573C278.487,224.267 278.162,225.679 274.442,225.675C274.211,225.467 274.426,224.357 272.461,223.896C270.932,223.537 270.966,224.097 269.383,223.843C267.862,223.599 268.274,222.6 266.5,222.5C261.741,222.232 261.825,222.745 261.426,222.667C261.285,222.639 261.964,220.466 256.498,221.22C253.581,220.411 252.987,218.608 251.287,221.134L250.038,221.19C254.916,197.087 259.502,179.918 262.675,163.536C264.11,156.129 269.975,154.81 283.725,142.776C286.92,139.981 324.101,110.454 327.623,107.657C420.267,34.083 420.261,33.629 423.229,33.243Z" style="fill:rgb(249,225,147);"/>
        <path d="M250.038,221.19L251.287,221.134C252.007,221.32 252.727,221.507 253.447,221.693C257.822,223.697 258.262,222.216 262.596,224.262C265.028,224.62 264.932,224.518 267.488,224.601C269.85,225.751 272.965,225.862 273.453,225.879C274.368,226.049 274.306,226.12 276.616,227.136C277.578,227.249 278.539,227.362 279.501,227.475L281.469,227.584C283.038,228.455 282.909,228.733 284.462,228.82C290.525,229.157 290.334,230.295 296.451,230.609C298.503,232.341 298.692,231.726 301.43,231.766C304.284,233.224 304.302,233.121 307.507,233.324C308.787,233.405 308.75,233.369 309.672,234.139C310.284,234.651 310.453,234.493 310.505,234.444C311.016,233.967 310.075,233.762 310.575,233.296C310.949,232.694 311.324,232.092 311.699,231.49C314.036,236.241 313.801,236.28 314.866,241.404C318.323,258.04 330.949,313.157 331.637,317.455C331.562,317.752 332.029,318.02 331.954,318.317C331.466,320.253 313.842,342.343 311.1,344.833C309.601,343.116 273.111,299.325 265.929,291.139C263.85,288.769 240.848,262.551 241.142,260.498C241.221,259.943 249.452,222.675 250.038,221.19Z" style="fill:rgb(246,192,156);"/>
        <path d="M312.757,229.053C316.653,233.401 316.224,233.656 319.949,238.112C334.625,255.668 334.66,255.62 335.901,257.173C339.907,262.192 386.233,316.204 387.268,318.588C388.32,321.01 370.446,398.839 368.626,410.552C368.058,414.212 366.461,410.271 346.205,386.716C346.254,386.589 347.716,385.124 346.5,383.164C344.474,379.9 346.506,379.421 345.31,376.575C344.069,373.621 344.981,373.429 343.675,370.411C342.163,366.913 343.464,366.669 342.415,363.532C340.817,358.752 341.758,358.272 338.393,354.486C338.783,343.685 337.687,343.805 334.371,329.537C333.041,323.814 332.493,320.343 332.366,319.537C332.366,319.537 331.695,317.622 331.637,317.455C330.949,313.157 318.323,258.04 314.866,241.404C313.801,236.28 314.036,236.241 311.699,231.49L312.757,229.053Z" style="fill:rgb(241,140,49);"/>
        <path d="M474.5,166.069C475.722,166.073 483.5,165.357 483.991,167.353C485.064,171.705 477.227,186.607 483.495,186.654C503.657,186.807 506.378,185.346 509.156,189.739C513.995,197.39 515.637,198.38 514.195,204.437C505.297,241.817 508.696,243.653 500.823,250.885C498.373,253.136 494.629,258.474 489.5,258.553C461.595,258.983 461.147,258.275 459.874,256.268C453.904,246.851 452.841,246.682 454.414,241.476C455.571,237.648 454.66,237.506 464.693,192.556C465.053,190.946 467.249,181.106 469.115,172.426C469.972,168.439 468.766,166.368 474.5,166.069Z" style="fill:rgb(178,177,177);"/>
        <path d="M642.784,218.537C644.974,209.327 646.107,199.304 648.261,197.27C659.021,187.105 659.116,186.774 662.501,186.658C690.041,185.707 690.782,186.784 692.13,188.742C700.382,200.729 698.479,201.61 697.636,205.525C691.479,234.136 691.405,234.088 690.905,236.581C689.21,245.021 690.59,246.38 677.889,256.955C676.018,258.513 675.539,258.912 647.499,258.535C646.316,258.519 644.087,258.489 637.859,247.312C636.723,245.272 636.772,245.012 642.784,218.537Z" style="fill:rgb(178,177,177);"/>
        <path d="M743.129,244.451C741.181,253.178 741.367,258.504 737.501,258.546C729.769,258.631 725.191,261.139 726.813,253.575C736.922,206.438 736.973,199.396 741.089,196.029C741.829,195.424 741.596,195.235 749.742,187.797C751.744,185.968 773.581,185.949 775.037,187.891C782.909,198.388 782.43,200.244 782.124,201.428C780.943,206.002 774.255,237.619 773.458,242.492C770.848,258.436 768.87,258.491 767.502,258.529C759.337,258.755 754.827,260.486 756.681,252.54C757.313,249.828 766.913,205.504 766.727,204.478C766.268,201.954 762.091,202.438 754.502,202.563C750.869,202.622 752.143,204.641 743.129,244.451Z" style="fill:rgb(178,177,177);"/>
        <path d="M434.598,213.514C436.354,206.484 436.248,205.25 436.186,204.522C435.877,200.908 422.692,202.132 421.525,203.517C420.616,204.597 410.759,253.008 410.682,253.537C409.638,260.746 406.739,258.255 399.5,258.332C393.084,258.401 396.323,254.923 398.018,246.417C405.544,208.649 406.226,208.847 406.693,205.537C408.058,195.868 410.039,196.754 416.952,189.943C420.802,186.149 421.425,186.698 441.497,186.786C444.08,186.797 444.071,187.289 449.055,194.806C454.003,202.269 449.516,207.302 447.467,219.493C445.199,232.99 440.428,253.636 439.746,256.59C439.156,259.143 425.768,259.448 425.704,256.492C425.629,253.005 433.821,216.938 434.598,213.514Z" style="fill:rgb(245,166,72);"/>
        <path d="M606.235,218.466C600.898,241.717 601.561,242.964 603.538,243.075C608.969,243.38 624.996,242.009 624.695,244.48C623.035,258.094 620.69,258.371 619.501,258.512C619.11,258.558 596.94,258.628 595.505,258.459C592.756,258.136 585.821,246.401 586.241,244.463C596.136,198.84 595.882,198.714 596.83,197.748C607.656,186.718 609.099,186.696 610.506,186.675C635.527,186.301 636.887,186.432 636.571,188.499C634.437,202.467 632.697,202.51 631.503,202.539C610.942,203.049 609.831,201.902 609.223,204.391C608.95,205.51 609.161,205.534 606.235,218.466Z" style="fill:rgb(178,177,177);"/>
        <path d="M569.5,166.069C573.956,166.196 576.402,165.135 575.376,169.475C571.694,185.066 571.707,186.625 574.488,186.655C578.543,186.699 587.237,185.726 587.267,188.507C587.275,189.206 585.163,201.036 584.048,202.011C582.235,203.594 569.261,200.846 568.101,204.325C565.633,211.723 558.057,257.432 555.42,258.304C554.857,258.49 543.191,259.348 542.515,257.494C542.047,256.209 551.429,216.176 552.71,207.538C552.949,205.924 553.11,205.971 556.945,187.582C561.296,166.716 561.652,166.181 563.445,166.112C565.462,166.034 567.483,166.147 569.5,166.069Z" style="fill:rgb(178,177,177);"/>
        <path d="M727.136,192.454C726.898,193.975 718.913,230.255 713.224,258.429C713.165,258.722 712.224,263.38 710.759,261.236C709.937,260.033 702.143,248.633 701.625,245.488C701.511,244.791 711.341,197.994 712.375,194.469C712.949,192.514 712.382,186.691 716.504,186.657C720.55,186.623 727.896,185.871 727.756,188.484C727.739,188.805 727.71,188.778 727.136,192.454Z" style="fill:rgb(178,177,177);"/>
        <path d="M542.087,196.446C541.443,199.184 528.476,261.15 528.306,261.278C526.868,262.367 525.144,258.452 522.135,253.732C517.959,247.184 516.714,247.079 518.644,239.537C519.917,234.559 528.344,188.133 530.651,186.923C530.865,186.811 542.348,185.804 543.312,187.606C543.648,188.235 543.924,188.751 542.087,196.446Z" style="fill:rgb(178,177,177);"/>
        <path d="M396.293,192.471C394.285,200.902 382.272,260.903 381.375,261.257C380.278,261.688 370.474,247.035 371.092,244.425C371.752,241.64 378.965,206.172 380.289,201.449C381.653,196.578 381.515,186.947 385.516,186.795C392.76,186.52 398.013,186.219 397.011,189.393C396.528,190.925 396.66,190.898 396.293,192.471Z" style="fill:rgb(245,166,74);"/>
        <path d="M492.718,237.536C490.866,245.475 487.382,243.08 482.5,243.079C472.883,243.078 466.958,245.803 469.599,236.522C473.718,222.051 475.062,203.44 478.534,202.686C478.716,202.646 498.245,202.164 499.184,202.906C500.737,204.133 495.127,223.831 492.718,237.536Z" style="fill:rgb(252,252,252);"/>
        <path d="M655.703,225.528C656.017,223.827 657.758,214.375 660.216,204.388C660.624,202.729 661.141,202.076 681.497,202.522C683.823,202.574 683.239,205.199 683.18,205.464C680.326,218.304 680.598,218.346 680.27,219.44C676.726,231.265 677.368,243.03 672.486,243.075C654.786,243.236 654.703,243.457 653.38,242.691C652.182,241.996 652.038,241.537 655.703,225.528Z" style="fill:rgb(252,252,252);"/>
        <path d="M331.637,317.455C331.695,317.622 332.366,319.537 332.366,319.537C332.493,320.343 333.041,323.814 334.371,329.537C337.687,343.805 338.783,343.685 338.393,354.486C337.172,358.702 335.28,368.411 334.025,371.642C332.373,369.353 331.007,370.598 311.1,344.833C313.842,342.343 331.466,320.253 331.954,318.317C332.029,318.02 331.562,317.752 331.637,317.455Z" style="fill:rgb(213,222,161);"/>
        <path d="M722.5,181.909C717.276,181.796 715.847,183.52 715.416,180.516C715.413,180.499 716.92,167.051 719.401,166.236C719.532,166.192 731.352,165.463 732.175,166.735C732.18,166.743 730.969,181.717 727.561,181.867C725.875,181.941 724.185,181.835 722.5,181.909Z" style="fill:rgb(178,177,177);"/>
        <path d="M541.5,181.909C534.482,181.909 530.387,184.385 531.69,177.54C533.275,169.214 532.938,166.081 537.495,166.07C544.979,166.052 549.389,164.209 547.479,171.495C545.449,179.236 546.87,181.257 541.5,181.909Z" style="fill:rgb(177,177,176);"/>
        <path d="M388.5,181.765C385.855,181.52 384.635,182.249 384.847,179.552C384.864,179.327 387.089,168.642 387.181,168.397C387.268,168.162 387.96,166.308 389.46,166.246C399.326,165.835 401.908,166.142 401.374,168.481C400.069,174.185 399.291,178.57 399.135,179.452C398.53,182.865 391.399,181.761 388.5,181.765Z" style="fill:rgb(245,165,71);"/>
        <path d="M338.393,354.486C341.758,358.272 340.817,358.752 342.415,363.532C343.464,366.669 342.163,366.913 343.675,370.411C344.981,373.429 344.069,373.621 345.31,376.575C346.506,379.421 344.474,379.9 346.5,383.164C347.716,385.124 346.254,386.589 346.205,386.716C342.803,382.434 335.981,375.206 334.025,371.642C335.28,368.411 337.172,358.702 338.393,354.486Z" style="fill:rgb(218,109,106);"/>
        <path d="M253.447,221.693C254.464,221.535 255.481,221.377 256.498,221.22C261.964,220.466 261.285,222.639 261.426,222.667C261.825,222.745 261.741,222.232 266.5,222.5C268.274,222.6 267.862,223.599 269.383,223.843C270.966,224.097 270.932,223.537 272.461,223.896C274.426,224.357 274.211,225.467 274.442,225.675L273.453,225.879C272.965,225.862 269.85,225.751 267.488,224.601C266.811,224.477 267.099,224.048 266.464,223.931C266.158,223.875 266.177,223.955 262.596,224.262C258.262,222.216 257.822,223.697 253.447,221.693Z" style="fill:rgb(250,223,175);"/>
        <path d="M281.469,227.584C283.909,227.291 283.823,227.328 284.503,227.181C289.845,226.618 289.352,228.622 289.442,228.641C289.84,228.725 289.79,227.633 294.521,228.395C295.969,228.628 295.788,229.748 297.446,229.793C297.686,229.8 297.668,229.794 300.444,229.807C298.424,230.283 298.532,230.258 296.451,230.609C290.334,230.295 290.525,229.157 284.462,228.82C282.909,228.733 283.038,228.455 281.469,227.584Z" style="fill:rgb(249,220,171);"/>
        <path d="M301.43,231.766L303.507,231.448C307.467,231.244 307.901,230.403 310.575,233.296C310.075,233.762 311.016,233.967 310.505,234.444C310.453,234.493 310.284,234.651 309.672,234.139C308.75,233.369 308.787,233.405 307.507,233.324C304.302,233.121 304.284,233.224 301.43,231.766Z" style="fill:rgb(249,218,172);"/>
        <path d="M273.453,225.879L274.442,225.675C278.162,225.679 278.487,224.267 281.459,226.573C281.575,226.664 284.259,227.138 284.503,227.181C283.823,227.328 283.909,227.291 281.469,227.584L279.501,227.475C278.045,227.047 278.132,227.017 276.616,227.136C274.306,226.12 274.368,226.049 273.453,225.879Z" style="fill:rgb(249,219,169);"/>
        <path d="M300.444,229.807C301.465,230.354 302.486,230.901 303.507,231.448L301.43,231.766C298.692,231.726 298.503,232.341 296.451,230.609C298.532,230.258 298.424,230.283 300.444,229.807Z" style="fill:rgb(249,218,171);"/>
        <path d="M251.287,221.134C252.987,218.608 253.581,220.411 256.498,221.22C255.481,221.377 254.464,221.535 253.447,221.693C252.727,221.507 252.007,221.32 251.287,221.134Z" style="fill:rgb(249,220,170);"/>
        <path d="M262.596,224.262C266.177,223.955 266.158,223.875 266.464,223.931C267.099,224.048 266.811,224.477 267.488,224.601C264.932,224.518 265.028,224.62 262.596,224.262Z" style="fill:rgb(249,211,172);"/>
        <path d="M451.493,8.485C451.919,8.508 452.103,7.71 452.529,7.733C452.529,7.733 453.298,9.367 453.365,9.509C453.266,9.415 453.347,9.474 451.493,8.485Z" style="fill:rgb(247,200,134);"/>
        <path d="M276.616,227.136C278.132,227.017 278.045,227.047 279.501,227.475C278.539,227.362 277.578,227.249 276.616,227.136Z" style="fill:rgb(248,210,170);"/>
    </g>
</svg>
