<?xml version="1.0" encoding="UTF-8" standalone="no"?>
<!DOCTYPE svg PUBLIC "-//W3C//DTD SVG 1.1//EN" "http://www.w3.org/Graphics/SVG/1.1/DTD/svg11.dtd">
<svg width="100%" height="100%" viewBox="0 0 1000 420" version="1.1" xmlns="http://www.w3.org/2000/svg" xmlns:xlink="http://www.w3.org/1999/xlink" xml:space="preserve" xmlns:serif="http://www.serif.com/" style="fill-rule:evenodd;clip-rule:evenodd;stroke-linejoin:round;stroke-miterlimit:2;">
    <g id="Sfondo">
        <path d="M0,0L999.999,0C1001.156,2.148 999.999,2.338 999.999,30.5L999.999,419.999C998.503,421.265 998.19,419.999 975.5,419.999L0,419.999C-0.929,418.273 -0,418.121 0,395.5L0,0Z" style="fill:rgb(254,254,254);"/>
        <path d="M44.966,198.5C45.004,196.305 43.538,181.924 50.814,174.815C58.013,167.78 64.464,168.113 71.5,168.104C110.16,168.055 119.632,166.348 126.336,178.583C128.373,182.299 130.333,185.878 129.141,231.479C128.967,238.132 122.614,250.418 108.504,250.882C61.829,252.414 58.141,249.837 54.599,247.361C43.14,239.353 44.966,231.352 44.966,198.5Z" style="fill:rgb(254,6,2);"/>
        <path d="M480.611,207.732C480.373,208.046 480.136,208.359 479.898,208.672C480.442,211.963 492.369,212.871 490.436,228.486C488.317,245.593 458.597,242.374 450.5,242.374C445.661,242.374 439.363,243.641 439.338,239.506C439.308,234.704 438.988,182.406 439.443,179.484C439.699,177.834 440.516,177.912 466.5,177.975C497.098,178.048 491.703,204.302 480.611,207.732Z" style="fill:rgb(46,52,65);"/>
        <path d="M876.205,236.602C871.995,235.721 871.295,241.293 864.48,242.405C832.609,247.605 829.837,203.037 848.497,193.496C864.633,185.245 874.051,197.055 874.574,197.261C877.21,198.296 876.033,196.305 876.086,193.452C876.137,190.751 883.058,191.501 887.501,191.545C890.375,191.573 891.024,191.687 891.026,194.495C891.029,198.173 891.062,240.122 891.036,240.459C890.952,241.547 890.802,243.478 877.532,242.315C876.091,242.188 876.021,240.877 876.205,236.602Z" style="fill:rgb(46,53,66);"/>
        <path d="M271.287,196.475C271.342,196.098 271.863,192.539 272.776,191.952C274.141,191.074 283.545,191.549 284.481,191.596C287.533,191.75 283.234,203.2 280.143,214.404C272.83,240.91 272.944,241.001 272.486,241.486C270.899,243.166 256.664,242.21 256.601,242.179C255.491,241.623 255.31,241.532 251.781,227.436C247.928,212.045 249.282,211.597 248.338,210.597C245.752,207.858 244.186,220.193 238.722,240.578C237.882,243.708 221.901,242.562 221.424,241.559C219.706,237.946 219.904,237.945 207.767,193.465C207.075,190.929 214.023,191.409 220.495,191.552C224.294,191.635 224.546,203.438 225.642,207.473C227.714,215.105 228.795,225.533 229.671,226.314C233.068,229.343 231.117,224.816 232.207,220.412C238.109,196.575 237.708,196.487 238.431,194.48C239.784,190.721 243.205,191.371 253.498,191.551C256.796,191.609 257.403,199.294 257.456,199.512C262.362,219.681 262.61,219.622 262.818,221.414C264.818,238.659 267.944,210.649 271.287,196.475Z" style="fill:rgb(46,53,66);"/>
        <path d="M646.501,242.508C646.333,242.512 630.797,244.973 621.644,235.363C609.863,222.995 609.943,185.526 649.47,191.64C656.836,192.779 667.806,202.443 668.082,214.515C668.61,237.69 652.438,240.995 646.501,242.508Z" style="fill:rgb(46,53,66);"/>
        <path d="M786.501,177.98C806.648,178.185 818.407,176.629 826.216,183.813C834.116,191.079 831.789,203.417 831.387,204.461C824.84,221.479 809.907,218.524 800.525,218.785C797.657,218.865 798.961,220.543 798.358,240.483C798.261,243.676 783.868,242.562 783.353,241.625C783.329,241.581 782.723,241.586 782.803,185.5C782.811,180.399 781.345,178.286 786.501,177.98Z" style="fill:rgb(48,54,67);"/>
        <path d="M157.5,223.423C158.459,223.423 168.802,223.422 169.49,223.538C170.975,223.788 170.567,224.35 172.483,227.512C175.209,232.011 183.737,232.079 186.348,227.419C193.37,214.885 161.733,216.851 156.226,203.628C147.614,182.946 173.125,171.642 191.397,179.727C200.369,183.697 202.668,193.548 202.296,194.466C201.81,195.668 196.052,195.663 195.5,195.662C193.387,195.66 186.757,196.819 184.953,193.299C181.538,186.634 173.988,189.911 172.914,190.933C160.356,202.883 198.606,203.483 202.346,217.548C210.195,247.067 162.857,249.674 155.952,230.34C154.144,225.28 153.728,223.735 157.5,223.423Z" style="fill:rgb(46,52,65);"/>
        <path d="M909.499,267.034C909.447,267.025 904.963,267.979 906.994,263.708C917.468,241.683 917.878,241.536 917.105,239.593C899.006,194.107 894.433,192.172 898.505,191.525C899.415,191.38 910.459,191.534 911.499,191.549C913.777,191.581 913.872,192.299 923.683,218.418C924.933,221.745 924.462,223.652 926.309,222.245C928.414,220.641 935.561,192.141 939.513,191.592C940.21,191.496 952.468,191.559 952.485,191.562C955.613,192.009 953.292,193.834 938.532,228.513C922.37,266.483 922.029,266.754 920.571,266.917C919.01,267.092 910.336,267.035 909.499,267.034Z" style="fill:rgb(46,52,65);"/>
        <path d="M738.426,238.5C738.423,215.171 739.216,209.144 735.142,205.881C734.359,205.254 729.088,201.034 722.655,204.785C713.606,210.061 720.133,236.557 717.613,241.578C716.864,243.07 703.69,242.23 703.609,242.183C702.401,241.486 702.408,236.043 702.408,235.5C702.462,193.092 701.976,192.409 703.6,191.736C704.324,191.435 715.971,191.508 716.472,191.61C719.122,192.152 717.104,199.516 720.321,196.299C721.179,195.441 726.575,190.045 734.492,190.88C755.663,193.114 753.59,205.344 753.433,239.498C753.412,244.182 751.14,242.37 746.5,242.374C741.031,242.38 738.844,243.915 738.426,238.5Z" style="fill:rgb(47,53,66);"/>
        <path d="M559.446,216.5C559.527,214.686 560.116,201.353 568.703,195.78C591.833,180.765 611.364,201.67 608.665,208.651C608.291,209.617 594.158,210.008 592.88,208.207C586.673,199.461 576.331,202.476 575.262,214.479C573.885,229.939 585.224,234.592 592.732,225.674C594.194,223.936 609.547,222.991 608.952,226.545C605.659,246.239 560.343,253.696 559.446,216.5Z" style="fill:rgb(46,52,66);"/>
        <path d="M388.501,201.635C381.547,202.247 380.332,209.68 391.512,211.443C405.589,213.663 416.903,223.557 408.062,236.133C402.763,243.67 375.032,249.316 367.182,228.585C365.975,225.399 374.133,226.142 379.508,226.265C381.663,226.314 389.121,236.257 395.325,230.315C404.618,221.415 374.643,223.273 369.782,212.365C359.238,188.709 405.715,182.071 410.253,204.551C410.984,208.171 407.789,207.65 407.5,207.65C400.24,207.67 398.482,208.932 395.324,204.629C393.619,202.306 389.092,201.712 388.501,201.635Z" style="fill:rgb(46,52,65);"/>
        <path d="M337.502,201.65C328.984,202.531 330.893,209.503 338.561,211.175C345.335,212.652 360.87,214.888 360.197,228.488C359.198,248.694 318.327,246.093 316.493,228.501C316.433,227.922 316.314,226.277 318.484,226.239C329.939,226.041 330.356,226.094 331.86,228.309C338.087,237.478 353.068,227.161 341.604,223.225C331.817,219.866 314.003,219.694 318.381,201.463C321.17,189.854 353.252,182.526 359.599,205.483C360.577,209.02 346.729,208.201 345.584,206.45C342.73,202.086 342.316,202.215 337.502,201.65Z" style="fill:rgb(46,52,65);"/>
        <path d="M62.83,209.5C63.352,203.125 62.442,202.268 64.544,201.727C65.134,201.575 77.287,201.611 77.513,201.604C80.571,201.508 79.418,192.635 79.502,187.5C79.56,184.022 86.994,185.037 91.514,185.06C96.959,185.088 94.921,193.792 95.1,199.547C95.196,202.61 102.888,201.571 108.496,201.628C112.727,201.67 112.184,206.45 111.926,214.549C111.796,218.637 103.469,217.311 97.492,217.38C92.476,217.439 97.189,232.394 93.592,233.719C92.645,234.068 81.667,233.95 81.42,233.904C77.715,233.2 79.71,231.444 79.5,219.5C79.444,216.314 71.426,217.448 66.5,217.38C61.182,217.307 63.259,214.746 62.83,209.5Z" style="fill:rgb(255,245,245);"/>
        <path d="M550.5,229.453C556.446,229.964 554.335,232.533 554.325,238.499C554.316,243.923 551.912,242.391 546.501,242.372C517.107,242.264 533.882,205.368 526.447,203.754C523.157,203.04 521.986,203.992 521.87,201.479C521.799,199.943 521.085,191.867 523.521,191.594C527.02,191.202 528.355,191.985 528.428,188.497C528.562,182.14 526.122,179.059 532.5,178.963C537.011,178.895 543.603,177.985 543.653,181.493C543.66,181.995 542.76,191.388 545.499,191.505C547.498,191.59 549.499,191.515 551.499,191.53C554.064,191.55 554.254,192.299 554.26,194.499C554.262,195.205 554.282,202.752 553.336,203.275C552.746,203.602 544.004,202.799 543.738,205.535C543.665,206.283 543.558,225.752 543.803,226.448C545.179,230.364 546.326,229.219 550.5,229.453Z" style="fill:rgb(46,52,65);"/>
        <path d="M514.84,236.5C514.593,240.627 515.605,242.33 511.5,242.371C505.443,242.432 499.444,243.51 499.424,239.503C499.405,235.823 499.211,197.682 499.468,193.497C499.672,190.176 514.066,191.28 514.583,192.459C514.887,193.152 514.84,193.09 514.84,236.5Z" style="fill:rgb(45,51,65);"/>
        <path d="M676.267,194.5C676.603,191.677 677.439,191.082 689.485,191.589C691.789,191.685 691.198,197.285 691.198,198.5C691.199,241.144 691.354,241.478 690.366,242.168C689.894,242.497 677.778,242.397 677.549,242.293C676.062,241.616 676.242,241.025 676.267,194.5Z" style="fill:rgb(44,50,64);"/>
        <path d="M292.44,194.5C292.785,191.132 294.318,191.219 305.494,191.554C307.944,191.627 307.296,196.161 307.296,198.5C307.303,240.917 307.357,241.053 306.76,241.783C305.855,242.891 293.735,242.27 293.579,242.222C292.246,241.811 292.431,241.17 292.44,194.5Z" style="fill:rgb(43,50,63);"/>
        <path d="M861.504,229.477C848.237,225.468 853.026,210.846 854.687,208.625C865.279,194.469 882.784,213.097 873.233,225.312C868.8,230.982 862.441,229.46 861.504,229.477Z" style="fill:rgb(250,250,251);"/>
        <path d="M630.238,216.497C632.048,196.223 654.955,200.472 652.104,220.417C650.57,231.146 631.497,236.633 630.238,216.497Z" style="fill:rgb(250,250,250);"/>
        <path d="M466.504,215.301C478.139,216.028 479.585,230.037 464.498,230.165C462.714,230.18 454.529,231.385 454.28,227.521C454.224,226.64 453.705,218.579 454.466,216.487C455.105,214.729 462.615,215.304 466.504,215.301Z" style="fill:rgb(249,249,249);"/>
        <path d="M809.528,206.739C806.997,206.758 798.642,208.119 798.384,204.509C797.35,190.065 799.345,189.962 800.524,189.901C802.041,189.822 818.858,188.95 816.298,200.458C815.013,206.237 811.006,206.497 809.528,206.739Z" style="fill:rgb(248,248,249);"/>
        <path d="M454.265,196.5C454.424,191.851 454.324,191.865 454.436,191.479C455.488,187.878 477.92,188.006 472.734,200.604C470.533,205.951 455.953,203.995 455.342,203.732C453.174,202.799 454.388,202.05 454.265,196.5Z" style="fill:rgb(245,245,246);"/>
        <path d="M507.493,168.896C526.247,171.213 510.572,193.901 499.803,182.235C499.692,182.115 492.83,170.303 507.493,168.896Z" style="fill:rgb(46,52,65);"/>
        <path d="M674.659,177.496C676.804,164.071 689.836,168.97 692.105,173.675C697.432,184.726 676.317,191.133 674.659,177.496Z" style="fill:rgb(45,51,65);"/>
        <path d="M299.512,168.905C313.183,170.172 308.442,181.388 306.217,183.162C294.497,192.505 282.042,171.038 299.512,168.905Z" style="fill:rgb(45,51,65);"/>
    </g>
</svg>
