<?xml version="1.0" encoding="UTF-8" standalone="no"?>
<!DOCTYPE svg PUBLIC "-//W3C//DTD SVG 1.1//EN" "http://www.w3.org/Graphics/SVG/1.1/DTD/svg11.dtd">
<svg width="100%" height="100%" viewBox="0 0 1000 420" version="1.1" xmlns="http://www.w3.org/2000/svg" xmlns:xlink="http://www.w3.org/1999/xlink" xml:space="preserve" xmlns:serif="http://www.serif.com/" style="fill-rule:evenodd;clip-rule:evenodd;stroke-linejoin:round;stroke-miterlimit:2;">
    <g transform="matrix(0.38622,0,0,0.38622,24.096085,147)">
        <g transform="matrix(1.171875,0,0,1.171875,0,0)">
            <path d="M115.5,0L155.5,0C150.386,33.997 148.317,34.845 150.383,35.708C151.91,36.346 189.154,35.94 192.525,35.903C194.393,35.883 194.899,35.09 195.239,33.45C198.696,16.779 198.962,16.93 200.5,0L241.5,0C238.258,17.245 238.119,17.137 235.293,34.465C234.509,39.266 236.865,38.159 241.521,39.423C292.307,53.209 310.689,101.753 307.553,135.503C303.959,174.169 287.222,184.045 289.966,188.201C319.28,232.607 277.497,288.439 268.192,298.212C233.154,335.01 207.855,334.059 186.462,337.274C179.652,338.297 180.965,340.559 180.224,344.438C174.988,371.844 175.188,373.465 175.5,375.999L134.5,375.999C140.788,341.8 141.395,339.855 138.485,339.842C99.586,339.673 99.423,338.835 96.319,340.157C94.832,340.79 90.216,367.118 89.5,375.999L49.5,375.999C48.908,365.762 57.666,340.409 53.443,339.866C40.038,338.145 33.931,341.756 7.114,311.848C4.985,309.474 3.279,309.359 5.029,308.003C7.282,306.258 159.673,310.78 188.481,305.396C257.372,292.524 283.421,218.64 257.743,189.295C253.608,184.569 264.307,184.5 274.061,158.344C280.297,141.621 281.848,106.273 256.31,84.728C230.593,63.034 217.565,65.932 97.5,65.932C87.198,65.932 78.459,65.207 77.775,67.584C77.065,70.05 54.863,197.967 51.18,217.447C50.364,221.763 50.797,221.744 41.793,271.55C41.157,275.068 40.616,282.772 37.522,282.828C9.616,283.326 8.189,282.803 8.543,280.504C10.132,270.159 42.292,90.016 45.248,73.456C51.609,37.824 50.472,36.086 53.543,35.931C61.244,35.541 107.938,36.76 109.036,35.159C109.776,34.081 110.643,27.714 115.5,0Z" style="fill:rgb(0,51,153);"/>
        </g>
        <g transform="matrix(1.171875,0,0,1.171875,0,0)">
            <path d="M250.009,151.432C241.982,185.38 230.788,180.13 230.539,186.503C230.539,186.514 258.281,215.285 229.085,255.188C204.897,288.248 165.535,282.846 140.5,282.846C67.048,282.846 66.288,283.069 65.763,281.467C65.515,280.71 98.676,93.432 98.968,92.731C99.464,91.54 100.013,91.695 189.5,91.695C193.289,91.695 256.292,85.24 250.009,151.432ZM115.899,223.572C114.41,232.189 111.743,242.212 114.533,242.269C177.589,243.56 182.765,242.009 188.43,240.312C200.812,236.602 212.78,205.353 184.507,205.079C179.379,205.029 124.059,204.494 120.4,205.203C119.003,205.474 119.189,205.985 115.899,223.572ZM192.402,169.004C193.099,168.772 206,166.951 210.037,151.383C213.504,138.015 201.083,134.002 199.503,133.491C191.674,130.962 132.875,132.35 132.573,132.608C130.893,134.043 126.225,164.716 125.797,167.53C125.457,169.762 126.231,169.693 128.496,169.7C183.659,169.873 187.314,169.51 192.402,169.004Z" style="fill:rgb(0,51,153);"/>
        </g>
        <g transform="matrix(1.171875,0,0,1.171875,0,0)">
            <path d="M698.385,180.929C639.872,161.449 670.884,84.396 721.46,89.93C785.119,96.896 767.642,194.227 698.385,180.929ZM721.409,110.878C688.997,105.523 679.488,147.634 700.702,159.139C729.977,175.016 758.452,123.56 721.409,110.878Z" style="fill:rgb(1,1,1);"/>
        </g>
        <g transform="matrix(1.171875,0,0,1.171875,0,0)">
            <path d="M415.5,180.954L373.454,180.953C370.961,180.92 371.339,179.935 371.866,177.583C374.756,164.682 381.468,132.389 382.285,128.456C389.392,94.264 388.31,93.585 390.673,91.711C392.843,89.99 431.007,91.148 434.512,91.254C448.5,91.678 459.451,102.339 458.585,113.502C457.01,133.82 442.798,133.517 446.923,137.033C462.937,150.681 450.178,168.565 444.201,173.122C431.536,182.778 417.812,180.909 415.5,180.954ZM417.5,162.813C424.63,162.086 425.677,163.893 430.359,158.382C433.793,154.34 434.799,144.231 422.506,144.005C401.621,143.622 401.041,143.83 400.562,145.523C400.188,146.842 396.192,160.958 397.597,162.396C398.195,163.008 405.278,162.815 417.5,162.813ZM407.113,114.412C406.782,115.941 403.451,126.765 406.426,126.873C418.821,127.323 438.218,128.601 436.116,115.556C434.91,108.078 424.137,109.187 411.5,109.348C407.612,109.398 408.152,110.662 407.113,114.412Z" style="fill:rgb(1,1,1);"/>
        </g>
        <g transform="matrix(1.171875,0,0,1.171875,0,0)">
            <path d="M411.499,192.92C443.618,195.241 443.171,222.205 425.823,235.896C421.756,239.106 436.095,240.904 432.59,259.519C430.595,270.11 418.142,282.346 400.5,282.423C396.582,282.441 352.807,282.632 351.526,282.39C348.868,281.887 350.92,279.618 364.877,211.585C368.399,194.421 368.077,194.07 369.406,193.371C370.47,192.812 370.505,192.92 411.499,192.92ZM377.967,252.599C377.771,253.512 375.584,263.701 376.637,264.19C376.923,264.323 398.835,264.772 402.584,263.852C412.657,261.38 416.69,245.867 400.499,245.645C398.981,245.624 385.436,245.438 381.513,245.664C377.447,245.898 379.251,247.873 377.967,252.599ZM384.05,224.408C382.848,231.057 386.792,228.566 393.5,228.562C395.651,228.561 415.537,231.382 414.898,217.465C414.583,210.614 405.529,210.745 390.501,210.988C390.208,210.993 387.523,211.037 386.94,211.825C386.581,212.311 384.871,220.596 384.05,224.408Z" style="fill:rgb(1,1,1);"/>
        </g>
        <g transform="matrix(1.171875,0,0,1.171875,0,0)">
            <path d="M807.5,180.954C806.687,180.954 797.671,180.955 797.341,180.851C794.879,180.076 796.596,179.094 798.057,172.406C814.078,99.067 813.17,98.933 814.99,92.671C815.56,90.708 823.764,91.144 833.508,91.231C836.014,91.254 836.144,91.88 850.308,118.605C854.229,126.005 862.945,143.277 863.546,143.339C865.44,143.533 873.481,97.494 875.321,92.399C875.881,90.848 883.385,91.144 893.518,91.216C894.901,91.226 895.943,91.568 895.518,93.503C889.462,121.016 877.801,179.427 876.499,180.499C875.391,181.411 858.781,180.906 858.4,180.786C855.468,179.867 830.376,125.921 828.682,126.946C827.51,127.656 817.79,177.674 816.929,179.705C815.877,182.187 815.069,180.86 807.5,180.954Z" style="fill:rgb(1,1,1);"/>
        </g>
        <g transform="matrix(1.171875,0,0,1.171875,0,0)">
            <path d="M716.5,245.838C717.147,244.455 726.899,195.932 727.443,194.479C728.517,191.607 747.253,193.029 747.602,193.397C748.971,194.836 734.859,257.024 733.61,262.527C729.597,280.212 730.526,282.405 725.5,282.424C716.714,282.457 710.39,283.625 708.372,279.564C706.336,275.468 688.405,239.387 682.237,228.713C680.903,226.403 679.79,232.188 679.721,232.549C678.98,236.401 671.904,273.193 669.59,280.528C668.718,283.295 659.603,282.435 651.502,282.429C646.881,282.426 650.036,276.165 653.096,261.411C654.222,255.981 666.993,194.396 667.666,193.642C668.826,192.341 686.925,192.929 687.628,193.173C690.063,194.015 711.913,239.504 716.5,245.838Z" style="fill:rgb(1,1,1);"/>
        </g>
        <g transform="matrix(1.171875,0,0,1.171875,0,0)">
            <path d="M789.5,192.92C830.32,192.92 832.889,192.09 832.143,195.425C828.989,209.51 829.245,209.473 828.778,210.628C827.342,214.188 782.803,210.439 780.954,212.831C780.315,213.657 777.703,226.086 777.712,226.5C777.798,230.52 808.256,225.822 808.481,229.501C808.481,229.505 805.351,245.026 805.2,245.37C804.009,248.074 777.447,246.013 774.58,246.8C772.256,247.438 770.35,262.052 770.609,262.445C771.977,264.522 815.78,262.337 817.336,263.702C818.62,264.828 814.399,280.991 814.205,281.339C813.428,282.74 812.868,282.398 754.5,282.424C747.741,282.428 743.535,285.052 745.043,278.403C762.116,203.145 760.799,202.981 762.406,196.477C763.587,191.692 766.077,192.92 789.5,192.92Z" style="fill:rgb(1,1,1);"/>
        </g>
        <g transform="matrix(1.171875,0,0,1.171875,0,0)">
            <path d="M868.485,210.053C867.516,210.188 858.222,209.808 856.39,216.475C852.033,232.326 915.093,220.525 904.593,261.524C897.24,290.236 847.287,290.047 826.776,267.277C825.099,265.414 828.788,262.463 834.859,255.819C837.978,252.405 838.58,249.82 842.583,253.405C871.82,279.597 895.482,256.478 877.547,249.387C867.816,245.54 828.772,243.981 835.93,213.593C843.042,183.397 891.116,187.623 909.175,205.804C910.291,206.928 910.069,207.584 898.122,221.135C896.247,223.263 893.324,219.093 888.287,215.816C878.968,209.753 870.578,210.212 868.485,210.053Z" style="fill:rgb(1,1,1);"/>
        </g>
        <g transform="matrix(1.171875,0,0,1.171875,0,0)">
            <path d="M950.487,210.052C949.397,210.2 939.386,211.557 938.317,216.459C934.788,232.645 998.036,220.653 986.242,262.424C978.483,289.906 929.041,290.013 908.742,267.308C907.769,266.219 907.454,265.288 919.718,252.713C924.092,248.228 930.822,265.342 951.501,265.304C967.609,265.275 971.532,252.576 956.532,248.39C945.964,245.441 909.384,242.324 918.399,211.469C926.33,184.322 973.361,187.573 991.131,205.836C993.089,207.848 979.933,222.741 977.489,221.517C976.832,221.188 977.35,220.516 970.264,215.85C960.824,209.634 951.845,210.195 950.487,210.052Z" style="fill:rgb(1,1,1);"/>
        </g>
        <g transform="matrix(1.171875,0,0,1.171875,0,0)">
            <path d="M572.488,210.053C571.396,210.2 561.357,211.55 560.292,216.453C556.764,232.695 620.008,220.611 608.211,262.415C600.424,290.007 550.894,289.917 530.731,267.318C529.757,266.227 529.411,265.277 541.706,252.701C546.114,248.191 552.678,265.356 573.501,265.305C589.542,265.265 593.537,252.582 578.529,248.398C568.236,245.529 531.257,242.311 540.378,211.462C549.01,182.267 599.371,189.869 613.117,205.847C614.315,207.24 613.733,207.764 602.057,221.079C600.179,223.22 595.277,217.852 592.257,215.859C582.837,209.645 573.859,210.198 572.488,210.053Z" style="fill:rgb(1,1,1);"/>
        </g>
        <g transform="matrix(1.171875,0,0,1.171875,0,0)">
            <path d="M966.5,180.954C961.83,180.731 959.294,182.03 960.22,177.436C963.014,163.577 963.396,163.729 963.304,162.514C963.063,159.336 922.499,161.689 916.427,160.99C913.507,160.653 915.891,152.571 917.481,145.494C917.985,143.25 925.574,137.223 937.729,125.755C973.387,92.112 973.283,91.27 977.496,91.227C996.89,91.029 997.161,90.501 998.266,91.742C999.533,93.164 987.974,141.184 988.244,142.563C988.724,145.011 989.776,143.628 996.483,143.747C997.747,143.769 999.559,144.339 995.535,159.514C995.161,160.925 987.215,161.057 986.48,161.07C982.56,161.135 981.745,173.791 980.26,179.421C979.653,181.725 969.916,180.974 966.5,180.954ZM971.943,122.597C973.45,116.976 973.639,116.976 973.435,116.518C972.869,115.245 972.486,115.54 971.482,116.469C969.237,118.549 943.416,142.466 943.416,142.471C943.128,144.218 944.333,144.195 965.521,143.727C967.65,143.68 967.621,142.811 971.943,122.597Z" style="fill:rgb(0,51,153);"/>
        </g>
        <g transform="matrix(1.171875,0,0,1.171875,0,0)">
            <path d="M471.5,192.92C476.12,193.014 478.579,192.024 477.54,196.51C476.579,200.662 468.17,240.177 467.927,241.584C463.482,267.24 487.726,266.862 497.322,257.321C506.666,248.029 510.33,206.988 514.499,194.5C515.508,191.48 535.458,193.192 535.662,193.294C537.655,194.291 525.763,244.168 524.718,248.552C515.25,288.26 474.876,287.485 460.773,279.024C438.445,265.627 444.57,246.726 455.858,195.572C456.711,191.707 463.573,192.92 471.5,192.92Z" style="fill:rgb(1,1,1);"/>
        </g>
        <g transform="matrix(1.171875,0,0,1.171875,0,0)">
            <path d="M627.493,162.064C631.178,161.546 636.816,161.874 645.351,155.302C648.49,152.885 649.589,151.429 653.002,155.899C656.353,160.287 662.933,165.833 659.081,169.068C623.486,198.957 583.686,173.986 580.964,146.434C575.525,91.372 642.531,74.724 666.015,105.869C668.966,109.783 666.746,110.581 653.154,122.065C650.098,124.647 648.205,116.33 640.3,112.95C604.827,97.781 583.757,159.419 627.493,162.064Z" style="fill:rgb(1,1,1);"/>
        </g>
        <g transform="matrix(1.171875,0,0,1.171875,0,0)">
            <path d="M510.5,111.034C509.918,111.017 503.345,110.822 503.389,109.505C503.4,109.163 505.274,100.037 506.881,93.596C507.491,91.149 507.968,91.309 510.498,91.224C510.517,91.223 584.043,91.215 584.543,91.231C586.015,91.279 586.903,92.222 582.609,109.54C581.845,112.625 556.919,110.187 554.391,111.311C552.484,112.159 540.461,175.889 538.9,179.69C537.897,182.134 517.754,180.813 517.49,180.509C516.608,179.497 530.97,116.204 531.539,112.499C531.795,110.831 530.639,111.034 510.5,111.034Z" style="fill:rgb(1,1,1);"/>
        </g>
        <g transform="matrix(1.171875,0,0,1.171875,0,0)">
            <path d="M778.5,180.953C762.797,181.024 762.115,180.786 762.32,179.503C765.237,161.249 777.846,105.834 779.298,99.451C779.453,98.769 781.077,91.633 782.458,91.308C782.942,91.194 800.968,91.133 801.567,91.338C803.572,92.023 801.226,97.371 793.304,136.458C792.607,139.9 785.845,173.263 784.046,179.373C783.619,180.824 778.961,180.941 778.5,180.953Z" style="fill:rgb(1,1,1);"/>
        </g>
        <g transform="matrix(1.171875,0,0,1.171875,0,0)">
            <path d="M470.5,180.954C469.687,180.954 460.629,180.957 460.343,180.876C457.485,180.067 459.548,178.9 461.006,172.396C477.429,99.114 476.108,98.917 477.955,92.663C478.708,90.112 498.703,91.149 499.196,91.762C500.239,93.06 480.983,179.574 480.931,179.702C479.902,182.22 479.072,180.869 470.5,180.954Z" style="fill:rgb(1,1,1);"/>
        </g>
        <g transform="matrix(1.171875,0,0,1.171875,0,0)">
            <path d="M635.5,192.92C642.802,192.919 652.489,192.539 653.026,193.734C653.695,195.22 641.304,250.51 640.202,255.429C634.612,280.373 636.023,282.143 632.494,282.408C630.96,282.524 614.01,283.798 613.282,281.619C612.473,279.201 627.351,213.449 628.687,207.546C631.092,196.918 629.627,193.568 635.5,192.92Z" style="fill:rgb(1,1,1);"/>
        </g>
    </g>
    <g transform="matrix(0.389999,0,0,0.389999,512,39.353901)">
        <g transform="matrix(1.171875,0,0,1.171875,0,0)">
            <path d="M603.5,0L627.5,-0C632.501,1.496 632.426,1.665 637.518,1.291C638.963,1.818 638.823,2.006 640.373,1.835C647.481,4.244 647.3,4.569 654.526,6.325C656.778,7.248 656.704,7.325 657.554,7.417C658.629,8.164 658.529,8.13 658.629,8.164C667.858,11.33 672.018,15.757 677.474,17.549C678.189,18.14 678.904,18.731 679.618,19.322C682.238,21.918 682.251,21.66 685.483,23.526C686.169,24.169 686.856,24.812 687.543,25.455C688.595,26.52 693.056,30.984 693.535,31.464C699.622,37.555 706.699,49.087 708.574,51.446C708.951,52.443 709.327,53.441 709.703,54.439C711.548,59.26 712.614,59.662 714.19,62.68C713.961,64.193 714.162,64.056 714.611,65.459C714.968,66.128 715.325,66.797 715.683,67.466C715.831,68.07 718.595,79.379 719.271,74.366C719.757,70.768 719.743,70.881 721.252,67.431C721.605,66.759 721.957,66.087 722.31,65.415C722.628,64.405 722.947,63.395 723.265,62.384C726.315,58.079 725.177,57.523 728.31,53.382C740.694,37.02 748.413,32.47 750.465,30.46C751.125,30.095 751.785,29.73 752.445,29.365C754.704,28.227 754.635,28.242 756.466,26.46C759.803,25.703 759.415,24.626 759.507,24.513C760.102,24.167 767.045,21.705 774.652,17.819C776.596,18.245 776.548,18.149 778.481,17.354C801.239,11.69 812.782,15.024 824.518,17.354C826.46,18.162 826.413,18.25 828.378,17.807L828.577,18.249C829.955,18.833 829.86,19.053 831.343,18.824C836.775,21.641 836.766,21.425 842.48,23.541C843.139,23.785 847.112,27.771 852.472,29.551C853.864,31.173 853.739,31.283 854.465,31.521C855.103,36.431 851.473,35.696 846.554,39.574C845.37,39.733 845.545,39.818 843.596,40.716C841.767,41.216 838.921,43.293 838.546,43.566C835.065,44.318 835.521,45.487 835.504,45.508L834.606,45.728C833.601,46.056 832.595,46.385 831.589,46.714C830.051,47.105 830.254,47.206 823.34,51.177C821.767,50.98 821.928,51.164 820.551,51.708C812.973,54.606 813.483,55.707 805.644,57.881C801.54,59.019 798.155,61.204 797.557,61.59C796.97,61.7 797.02,61.74 794.631,62.806C793.934,63.094 793.237,63.382 792.54,63.671C791.639,64.015 783.935,66.956 781.605,68.734C780.586,69.051 779.567,69.367 778.548,69.684C776.533,70.455 769.339,74.162 768.548,74.57C767.417,74.696 767.499,74.801 765.522,75.583C763.289,76.452 747.757,81.582 754.531,81.354C755.83,81.311 755.712,80.721 770.472,78.197C794.543,74.08 819.939,81.303 820.516,81.368C821.974,81.965 821.882,82.125 823.377,81.807L823.581,82.246C825.883,83.248 825.796,83.303 826.556,83.411C829.346,85.273 834.788,87.134 835.531,87.389C836.203,87.737 836.875,88.085 837.548,88.434C840.411,90.608 840.425,90.378 847.49,94.515C847.902,95.113 848.314,95.711 848.726,96.309C850.944,98.796 853.463,99.494 853.493,99.511C853.895,100.126 854.297,100.741 854.699,101.356C856.48,103.601 856.42,103.545 858.651,105.301C858.711,105.354 858.069,106.16 860.506,106.497C861.618,110.068 861.898,109.811 864.552,112.453C864.834,113.613 865.09,113.409 866.493,114.505C868.705,119.197 868.365,119.338 871.729,123.385C872.022,124.08 872.315,124.775 872.608,125.47C874.275,130.102 874.961,129.705 876.838,134.321C876.963,136.002 877.057,135.873 877.71,137.422C878.04,138.098 878.37,138.775 878.699,139.452C879.088,140.333 881.737,146.333 883.177,150.627C882.995,152.224 883.167,152.082 883.734,153.483C882.962,161.978 878.468,151.732 868.678,149.157C867.845,148.939 867.993,148.755 859.383,143.737C858.827,143.413 852.577,139.771 852.436,139.705C851.44,139.327 850.444,138.95 849.447,138.573C845.864,135.745 842.118,134.022 841.437,133.708C839.426,132.811 839.603,132.737 838.444,132.577C834.8,129.701 831.115,128.034 830.432,127.725C829.737,127.418 829.042,127.11 828.348,126.803C826.207,125.767 826.346,125.71 825.449,125.572C823.119,123.767 804.981,114.238 787.487,110.63C785.449,109.78 785.566,109.894 783.441,109.74L782.473,109.699C781.457,109.405 780.441,109.112 779.426,108.818C776.531,108.549 735.473,101.073 756.61,107.274C768.039,110.626 767.515,111.572 778.541,116.388C779.207,116.741 779.872,117.094 780.538,117.447C786.064,121.493 788.716,122.259 789.507,122.488C789.843,124.809 790.568,124.175 790.708,124.327C791.272,124.982 793.68,126.493 798.15,130.839C798.742,131.413 798.338,131.571 798.898,132.127C799.019,132.246 798.898,132.127 800.543,133.46C801.178,135.877 802.577,136.354 802.642,136.441C805.813,142.79 807.38,141.938 812.45,157.518C813.661,161.237 813.707,175.909 813.713,177.511C813.413,178.533 813.114,179.555 812.815,180.576C811.4,192.027 806.622,186.264 806.353,185.66C805.497,183.736 804.847,184.059 804.429,183.556C804.074,182.891 803.718,182.225 803.363,181.56C801.759,178.791 801.5,179.127 799.452,176.543C799.157,175.399 798.975,175.532 797.319,173.61C793.533,167.994 788.965,163.254 788.849,163.158C788.717,163.049 788.917,162.988 787.447,161.55C786.813,159.118 785.422,158.769 785.311,158.636C785.02,158.37 785.364,158.232 785.019,157.918C784.897,157.806 785.019,157.918 783.361,156.685C782.706,156.324 782.052,155.963 781.397,155.602C779.379,153.06 780.359,152.26 777.43,150.651C776.755,150.3 776.08,149.948 775.404,149.597C775.039,148.947 774.673,148.298 774.308,147.649C773.671,146.996 770.762,144.015 765.684,140.194C765.538,140.084 765.523,140.141 763.511,139.48C762.498,138.111 762.734,137.772 761.447,137.558C761.09,137.195 759.028,135.093 756.4,133.674C755.752,133.301 755.103,132.927 754.454,132.553C751.224,129.409 738.108,122.326 736.452,121.694C735.066,121.125 735.214,120.932 733.656,121.091C728.424,115.943 732.062,126.035 732.157,126.624C731.922,128.222 732.138,128.075 732.684,129.487C733.119,141.291 736.251,152.009 737.145,166.616C737.016,168.203 737.223,168.069 737.731,169.492C737.742,172.814 737.753,176.136 737.765,179.458C737.884,183.07 737.862,182.96 738.707,186.498C738.503,215.555 738.57,216.971 738.707,234.502C738.03,238.536 737.883,238.398 737.762,242.54C737.559,273.707 733.336,278.727 732.705,303.508C731.767,305.496 731.851,305.434 731.781,307.556C729.505,322.133 730.511,322.664 731.622,323.25C734.654,324.85 737.976,326.105 738.543,326.319C739.958,326.885 739.88,327.063 741.346,326.816C747.138,330.309 747.037,330.429 753.528,332.318C755.865,333.254 755.794,333.308 756.554,333.416C761.263,336.598 766.977,335.438 762.569,340.558C761.568,341.722 761.863,341.813 750.664,355.608C750.295,356.254 749.926,356.9 749.557,357.545C749.449,357.687 749.577,357.697 748.501,359.501C747.889,359.899 747.276,360.297 746.664,360.695C744.115,362.968 743.846,367.604 739.332,362.705C737.749,360.987 737.528,361.494 735.444,360.691L734.381,359.74C733.38,359.403 732.38,359.067 731.38,358.731C724.16,354.374 723.168,353.993 722.399,353.697C722.341,353.653 722.804,353.085 720.459,352.556C716.828,349.852 714.947,348.965 714.43,348.721C712.312,347.786 712.424,347.719 711.448,347.564C711.428,347.544 707.493,344.37 703.454,342.631C703.225,342.467 703.524,341.97 701.446,341.574C697.032,338.111 694.144,336.93 693.448,336.645C693.187,336.451 693.49,335.97 691.453,335.556C688.979,333.202 685.982,331.844 685.459,331.607C684.791,331.259 684.122,330.911 683.454,330.562C678.754,326.914 675.158,325.096 674.387,324.706C674.232,324.585 674.676,324.098 672.449,323.568C668.625,320.57 666.976,319.863 666.449,319.636C665.783,319.277 665.116,318.918 664.45,318.558C663.967,318.072 662.027,316.117 657.396,313.687C656.746,313.314 656.097,312.941 655.448,312.569C655.088,312.288 654.729,312.007 654.369,311.726C653.735,311.33 653.101,310.934 652.467,310.538C650.683,308.744 650.873,308.694 648.443,307.648C647.78,307.283 647.117,306.918 646.453,306.554C640.844,300.948 639.94,302.36 633.698,297.246C633.042,296.709 633.089,296.941 632.449,296.62C631.782,296.269 631.115,295.917 630.449,295.566C626.917,292.622 615.639,284.719 615.448,284.623C614.778,284.274 614.109,283.925 613.44,283.576C603.249,275.042 602.766,275.913 592.393,267.669C591.746,267.3 591.098,266.931 590.451,266.562C587.419,264.063 587.84,263.676 584.381,261.692C583.738,261.312 583.096,260.932 582.453,260.552C581.048,259.14 570.301,250.564 567.686,249.16C567.59,249.109 567.686,249.16 566.513,248.48C566.461,248.412 567.12,247.217 564.467,246.536C561.814,243.844 556.417,239.739 555.688,239.184C548.117,233.425 547.305,232.929 546.529,232.455C546.494,232.412 547.071,231.226 544.454,230.55C540.859,226.959 540.856,227.105 536.512,224.482C536.109,223.876 535.705,223.271 535.301,222.666C533.803,220.988 533.696,221.359 531.509,220.484C531.13,218.177 530.378,218.873 530.255,218.753C529.93,218.396 529.605,218.039 529.28,217.682C526.894,214.989 513.151,204.293 511.712,203.173C511.102,202.699 511.144,202.829 510.528,202.457C510.516,202.442 511.006,201.241 508.447,200.555C506.654,198.72 506.708,198.772 504.503,197.495C504.071,195.29 503.412,195.975 503.227,195.804C503.159,195.738 503.735,195.098 501.453,194.548C500.243,192.782 500.3,192.798 498.436,191.635C497.76,191.289 497.084,190.942 496.408,190.595C496.035,189.952 495.662,189.309 495.289,188.665C494.857,188.217 481.337,176.132 478.502,174.498C478.102,173.882 477.702,173.267 477.302,172.652C474.513,169.802 474.685,169.846 473.33,168.762C472.068,167.252 472.053,167.446 470.445,166.553C469.735,165.827 463.752,159.705 461.348,157.714C459.436,155.987 459.614,156.006 457.451,154.551C454.421,151.503 454.473,151.582 451.458,148.544C448.665,145.729 448.574,144.41 452.214,143.002C454.526,142.108 467.087,130.24 468.641,134.324C469.602,136.851 476.866,144.506 477.649,145.331C478.705,146.309 479.551,147.19 479.711,147.357C481.496,149.597 481.503,149.464 483.527,151.473C483.95,152.057 484.373,152.64 484.796,153.223C485.386,153.628 485.976,154.033 486.566,154.438C493.125,162.339 493.208,162.122 500.526,169.475C500.922,170.077 501.318,170.679 501.714,171.281C501.838,171.471 506.654,178.846 504.544,171.508C504.403,170.128 504.338,170.252 501.847,154.378C502.003,152.832 501.826,152.969 501.297,151.516C501.144,150.803 500.991,150.089 500.837,149.376C501.202,147.384 501.115,147.424 500.375,145.509C499.431,138.388 499.976,138.086 500.514,138.295C519.325,145.575 519.814,145.786 519.767,147.493C519.717,149.346 517.128,160.043 518.054,168.536C518.675,174.245 519.338,175.229 520.22,174.111C524.659,168.489 525.841,169.615 529.542,163.528C531,162.407 530.939,162.533 532.198,161.205C532.531,160.869 532.864,160.532 533.197,160.196C533.617,159.616 534.037,159.037 534.458,158.457C535.127,157.794 535.797,157.131 536.466,156.467C543.276,149.59 544.037,148.349 544.54,147.527C546.432,146.989 545.999,146.614 547.469,144.471C555.506,136.254 556.353,129.37 564.61,137.372C569.803,142.406 581.512,142.356 571.456,150.439C569.21,152.244 569.61,152.439 567.555,154.556C566.858,155.187 566.162,155.817 565.465,156.448C561.405,158.801 561.843,159.236 558.529,162.53C557.84,163.168 557.152,163.807 556.463,164.446C555.745,164.897 555.95,165.136 548.285,171.191C548.149,171.298 547.336,171.94 546.709,172.668C546.303,173.273 545.896,173.878 545.489,174.484C544.391,175.079 541.141,176.842 533.551,184.555C532.914,184.939 532.277,185.322 531.639,185.706C529.35,187.467 529.536,187.519 527.549,189.552C525.303,190.127 525.768,190.693 525.718,190.736C524.317,191.733 524.536,192.038 525.507,193.495C527.353,194.865 543.255,209.736 545.625,210.317C546.561,210.547 546.244,210.914 554.76,218.169C563.837,225.902 565.506,226.795 566.561,227.359C567.222,227.723 567.883,228.087 568.544,228.451C571.332,231.255 571.297,231.11 574.618,233.302C575.257,233.687 575.897,234.073 576.536,234.458C580.486,237.519 580.295,237.517 584.627,240.277C584.828,240.445 584.297,240.984 586.549,241.445C587.822,243.084 589.358,244.065 589.64,244.245C592.677,246.152 592.587,246.285 593.551,246.442C598.461,252.195 669.052,294.042 677.552,297.303C680.94,299.2 680.866,299.254 681.562,299.413C682.823,300.288 682.829,300.224 698.62,308.215C700.224,308.997 700.519,309.059 701.284,307.403C702.866,301.461 703.998,298.591 704.337,291.49C705.137,289.594 705.245,289.657 704.831,287.621C710.331,264.483 710.201,259.068 710.303,255.488C710.846,254.057 711.045,254.2 710.85,252.624C713.187,232.647 715.627,233.007 716.27,207.493C717.156,205.563 717.235,205.653 716.848,203.619C717.385,195.678 718.924,190.317 719.266,173.492C719.349,169.399 720.27,123.969 718.649,122.321C717.254,120.902 704.59,126.043 703.349,127.191C701.816,126.882 701.895,127.114 700.529,127.668C699.853,127.885 695.726,129.209 692.55,131.571C691.697,131.734 691.86,131.761 689.672,132.824C689.295,133.089 688.919,133.354 688.543,133.619C687.148,134.232 675.174,142.292 674.72,142.71C674.306,143.294 673.892,143.878 673.478,144.462C672.13,144.921 669.37,145.859 659.541,155.545C658.903,155.925 658.265,156.305 657.627,156.685C656.115,157.912 651.085,162.97 650.528,163.529C649.951,163.952 649.374,164.375 648.797,164.797C648.464,165.132 648.131,165.466 647.799,165.801C647.457,166.127 647.115,166.454 646.773,166.78C646.433,167.105 646.092,167.43 645.751,167.755C645.349,168.35 644.946,168.946 644.543,169.541C642.999,171.086 643.075,171.025 641.542,172.54C639.67,174.39 639.83,174.456 639.67,174.612C639.296,175.255 638.922,175.899 638.547,176.542C631.036,184.309 627.283,195.335 626.394,184.516C625.636,175.297 624.376,175.186 628.355,154.483C628.953,153.058 629.147,153.128 628.81,151.651C630.7,148.589 635.123,139.168 636.275,137.377C636.43,137.186 636.894,137.648 637.456,135.461C641.595,131.422 645.651,126.212 646.311,125.364C646.43,125.228 647.121,125.824 647.492,123.488C651.955,121.018 651.794,121 655.46,117.454C656.11,117.083 656.76,116.713 657.41,116.342C661.867,113.925 663.032,112.834 663.452,112.441C664.265,112.294 664.198,112.239 666.443,111.287C667.443,110.912 667.298,110.688 678.629,105.826C680.132,106.031 680.056,105.866 681.484,105.337C687.488,104.931 687.376,104.726 693.432,104.272C693.661,103.983 693.89,103.694 694.118,103.405C693.957,103.104 695.179,103.212 695.017,102.911C694.972,102.828 693.184,102.266 692.633,102.248C665.479,101.401 665.408,100.35 649.378,104.172C647.341,103.756 647.377,103.878 645.511,104.634C641.889,105.124 642.115,105.565 638.468,106.412C637.656,106.601 630.639,108.232 628.594,109.729C627.57,110.036 626.547,110.343 625.523,110.651C624.699,110.89 618.116,112.799 615.612,114.748C614.589,115.062 613.566,115.376 612.544,115.689C605.548,118.261 587.037,127.582 586.528,127.68C585.166,127.942 581.928,127.004 588.288,110.443C588.579,109.74 588.871,109.036 589.162,108.333C590.212,106.231 590.292,106.298 590.445,105.453C592.62,103.306 592.605,103.34 593.526,100.515C594.126,100.106 594.727,99.697 595.328,99.289C595.628,99.031 596.698,98.108 598.453,95.459C599.811,94.68 600.073,94.955 600.438,93.374C604.435,91.575 604.691,90.23 606.456,88.45C607.12,88.091 607.784,87.732 608.448,87.373C610.438,86.472 614.948,83.203 616.457,82.437C617.628,82.287 617.449,82.212 619.47,81.341C623.775,80.269 626.181,78.581 627.658,77.829C629.245,78.03 629.092,77.817 630.463,77.285C632.722,76.425 633.225,76.383 633.476,76.362C646.06,75.32 659.423,69.484 681.568,77.23C682.153,77.435 716.407,89.417 689.282,77.827C687.703,77.153 670.033,69.602 669.528,69.436C668.571,68.351 668.578,68.492 667.301,67.885C665.153,66.786 665.221,66.736 664.462,66.548C662.264,64.537 662.256,64.738 659.448,63.685C658.589,62.825 658.652,62.86 657.372,62.648C654.342,59.987 650.114,58.022 649.436,57.707L648.342,56.798C645.837,55.685 645.878,55.663 645.448,55.57C641.971,52.946 638.058,51.049 637.38,50.721C637.309,50.663 637.782,50.095 635.459,49.549C633.031,47.157 632.611,46.994 632.302,46.874C626.729,44.711 627.559,43.577 622.405,40.663C621.754,40.296 621.103,39.929 620.452,39.561C620.091,39.282 619.729,39.002 619.367,38.723C618.361,37.841 618.548,37.745 617.54,37.467C616.455,36.08 616.069,36.524 600.358,23.704C599.729,23.313 599.101,22.922 598.472,22.531C595.102,19.256 595.293,19.177 591.53,16.455C590.835,15.821 590.141,15.187 589.446,14.553C589.062,13.924 588.677,13.295 588.293,12.667C587.977,12.341 587.661,12.015 587.345,11.689C586.716,11.308 586.086,10.926 585.457,10.545C584.767,9.895 584.078,9.246 583.388,8.596C580.204,5.11 586.236,5.628 592.658,1.838C594.225,2.02 594.078,1.82 595.468,1.307C599.645,1.856 599.62,1.566 603.5,0Z" style="fill:rgb(252,108,15);fill-opacity:0.99;"/>
        </g>
        <g transform="matrix(1.171875,0,0,1.171875,0,0)">
            <path d="M546.508,273.376C548.493,274.199 548.446,274.131 550.558,274.257C553.326,274.928 556.963,275.288 557.524,275.344C567.802,276.362 567.72,277.685 567.531,278.502C565.096,289.021 560.208,313.015 559.649,319.463C560.831,321.317 561.06,321.023 563.345,320.824C564.538,321.553 571.73,325.953 579.603,327.225C581.761,328.206 581.697,328.277 582.551,328.426C586.913,331.693 589.786,332.376 590.481,332.541C591.188,332.709 594.344,335.538 596.636,337.27C597.649,338.44 597.57,338.361 598.78,339.202C602.94,341.121 608.948,350.653 609.578,351.444C609.711,352.452 609.786,352.34 610.669,354.459C617.355,371.913 612.416,385.36 610.707,391.546C609.761,393.447 609.712,393.306 609.589,395.562C605.535,402.317 605.386,402.086 599.65,407.66C599.389,407.914 599.433,407.912 598.456,409.466C597.454,409.75 597.64,409.842 596.634,410.726C596.274,411.008 595.914,411.29 595.554,411.572C594.884,411.923 594.214,412.274 593.544,412.626C585.178,416.141 584.992,415.573 584.765,415.743C584.649,415.83 584.765,415.743 585.624,417.342C602.494,423.615 604.931,432.338 609.729,438.391C610.046,439.414 610.362,440.437 610.678,441.46C614.315,454.51 614.721,455.554 610.648,476.518C610.129,477.939 609.972,477.809 610.169,479.369C608.6,483.007 608.007,484.216 607.804,484.63C607.537,485.176 605.727,488.868 604.695,491.556L603.727,492.617C602.661,495.142 602.635,495.101 602.552,495.545C601.705,496.437 598.086,501.144 597.706,501.638C597.324,502.279 596.943,502.92 596.561,503.56C586.955,511.484 586.488,510.537 575.342,516.169C573.768,515.962 573.918,516.176 572.532,516.704C572.146,516.858 571.76,517.011 571.374,517.165C569.865,516.933 569.941,517.106 568.512,517.656C546.383,518.61 546.536,518.556 524.495,517.617C522.892,517.549 521.21,517.477 517.893,536.561C517.825,536.951 513.999,558.845 513.407,559.396C511.973,560.732 511.714,559.365 503.492,558.614C502.142,558.325 500.793,558.036 499.443,557.747L497.485,557.694C496.465,557.403 495.446,557.112 494.427,556.821C487.668,556.193 486.123,555.982 487.081,552.412C489.022,545.185 499.156,512.377 489.481,511.695C488.819,511.648 488.152,511.702 487.489,511.655C485.514,510.812 485.573,510.89 483.433,510.775C474.94,508.596 474.837,510.935 473.926,514.603C470.563,528.144 469.25,553.315 464.507,551.479C459.185,549.418 443.323,546.91 441.462,546.616C438.049,546.076 449.932,503.235 446.442,502.819C437.337,501.732 437.697,500.111 428.488,499.682C426.604,498.875 426.667,498.761 424.621,499.171C411.719,496.101 411.897,495.418 402.491,494.618C400.532,493.864 400.6,493.797 398.629,494.163C394.084,492.229 396.486,490.537 401.338,477.463C401.913,475.962 402,476.099 401.837,474.635L402.254,474.418C402.808,473.076 403.023,473.232 402.831,471.66C406.475,464.412 405.755,461.137 413.595,463.114C436.399,468.863 436.133,462.069 437.302,456.485C437.593,455.465 455.058,365.605 455.211,363.433C456.669,350.67 462.83,341.179 456.449,334.546C456.118,333.347 455.901,333.601 454.464,332.542C454.111,332.251 453.758,331.96 453.405,331.669C452.736,331.354 452.067,331.04 451.398,330.725C448.948,329.952 440.622,326.819 428.421,325.692C425.663,325.437 430.8,317.761 431.299,303.486C431.595,302.466 431.891,301.446 432.187,300.427C433.231,294.356 435.92,297.63 445.517,298.287C446.538,298.577 447.56,298.868 448.581,299.158C449.958,299.348 484.496,307.086 485.2,305.31C488.793,296.24 493.033,263.339 494.468,263.268C495.607,263.211 504.843,266.767 519.555,268.336C523.297,268.736 514.791,300.643 514.657,301.526C513.747,307.478 510.85,309.636 516.588,311.128C531.113,314.904 531.667,314.428 532.151,313.268C534.77,306.993 538.277,281.448 538.378,280.481C538.412,280.153 538.62,280.228 539.369,276.478C540.271,271.963 541.936,273.525 546.508,273.376L511.628,424.15C504.221,423.017 494.209,418.827 492.493,422.497C489.376,429.166 484.195,460.688 482.881,469.556C481.697,477.552 484.404,477.071 488.511,477.343C489.976,477.484 489.854,477.441 491.373,477.846C492.509,478.021 502.208,479.514 505.482,480.56C514.044,483.298 541.509,483.456 550.454,475.449C569.483,458.414 553.569,438.534 544.523,435.449C542.927,434.45 542.882,434.792 541.452,433.569C539.989,432.479 535.961,430.843 535.467,430.642C532.437,430.17 532.676,429.819 529.649,429.193C523.146,425.842 520.447,425.148 514.489,424.636C512.939,424.498 513.077,424.527 511.628,424.15L546.508,273.376L533.63,348.166C508.193,339.594 507.115,343.408 506.656,345.527C505.803,349.472 505.842,349.37 505.695,353.513C505.54,354.992 505.585,354.871 505.163,356.377C505.013,357.091 497.007,392.502 498.663,393.21C505.034,395.937 516.905,396.24 518.511,396.281C520.001,396.461 519.881,396.416 521.38,396.852C531.881,397.286 542.797,399.986 554.379,391.322C566.173,382.499 562.888,366.896 557.361,360.672C556.182,360.29 556.297,360.294 555.414,359.59C555.082,359.254 554.749,358.918 554.417,358.582C554.036,357.96 553.655,357.337 553.274,356.715C540.987,349.3 538.355,349.207 536.477,348.669C534.993,348.515 535.149,348.553 533.63,348.166L546.508,273.376Z" style="fill:rgb(252,108,15);fill-opacity:0.99;"/>
        </g>
        <g transform="matrix(1.171875,0,0,1.171875,0,0)">
            <path d="M402.619,53.852C404.678,53.986 404.557,53.779 406.494,53.271C411.165,53.27 415.837,53.27 420.509,53.27C421.528,53.566 422.547,53.862 423.566,54.158C432.816,54.893 432.486,55.936 441.527,58.387C442.256,58.664 442.984,58.942 443.712,59.219C445.089,60.823 444.965,61.068 443.578,62.573C442.901,63.231 442.225,63.889 441.548,64.548C440.96,64.959 440.372,65.37 439.784,65.781C439.374,66.372 438.964,66.963 438.554,67.555C437.007,68.562 437.055,68.454 435.636,69.692C432.84,71.99 432.907,71.922 430.649,74.627C429.414,74.882 429.449,74.823 428.653,75.749C427.825,76.34 422.705,79.996 418.713,83.703C418.307,84.299 417.901,84.896 417.495,85.492C408.194,89.979 400.084,96.652 398.696,97.793C389.928,105.007 388.425,102.626 379.608,109.711C378.918,110.011 378.229,110.311 377.54,110.61C369.162,114.425 369.923,115.544 361.514,119.519C359.472,119.929 359.739,120.399 359.525,120.549C358.813,120.762 358.102,120.976 357.391,121.19C356.131,121.679 339.247,127.655 344.503,128.474C345.828,128.68 345.375,126.86 360.478,123.391C361.817,123.031 363.156,122.67 364.494,122.309C373.023,122.326 372.933,122.4 381.505,122.314C382.856,122.619 384.206,122.924 385.557,123.229C393.855,123.894 393.621,124.738 405.53,128.323C406.99,128.879 406.852,129.008 408.337,128.836C409.527,129.428 409.331,129.604 410.614,130.193C412.745,131.187 412.641,131.224 413.54,131.442C418.661,135.234 430.312,139.406 438.944,157.261C438.992,157.36 439.039,157.285 439.739,158.392C440.492,159.582 441.077,161.363 441.166,161.632C441.008,163.135 441.13,163.001 441.66,164.483C442.368,171.399 443.524,174.885 439.387,172.762C437.669,171.88 426.522,166.16 417.462,162.665C416.767,162.371 416.072,162.078 415.376,161.784C413.054,160.746 413.099,160.686 412.444,160.586C403.621,154.659 366.845,146.334 350.518,148.695C348.024,149.056 332.697,149.793 342.568,151.178C346.052,151.667 345.924,151.553 349.486,151.596C350.921,151.983 350.807,152.09 352.354,151.861C368.608,158.655 369.213,157.701 381.588,168.401C388.686,174.538 387.477,175.488 393.836,182.277C394.386,182.687 394.937,183.097 395.487,183.507C397.112,188.911 397.562,188.589 400.17,193.66C399.996,195.124 400.126,194.984 400.681,196.475C405.54,216.825 403.72,220.208 401.891,230.75C401.059,235.546 396.406,222.904 392.45,219.545C392.308,218.997 392.301,219.136 390.375,216.558C388.863,214.149 388.55,214.6 386.448,212.551C386.038,211.952 385.627,211.353 385.216,210.754C383.134,208.273 382.753,208.842 380.447,206.553C379.79,205.877 379.132,205.202 378.474,204.526C376.191,202.215 376.326,202.177 373.516,200.477C373.122,199.867 372.727,199.257 372.332,198.648C366.087,192.627 363.428,191.791 362.5,191.5C362.127,189.217 361.441,189.829 361.293,189.67C358.649,187.187 348.804,180.054 345.383,178.724C345.375,178.718 345.845,178.124 343.46,177.55C341.23,175.538 341.206,175.765 338.453,174.669C336.316,173.727 336.428,173.775 334.329,172.891C329.351,172.113 329.61,169.611 321.485,168.634C320.48,168.316 319.476,167.998 318.471,167.68C317.883,167.978 316.352,168.754 315.924,175.521C315.737,178.473 314.374,199.991 316.631,212.486C316.973,214.377 316.025,214.365 317.798,236.477C318.162,241.016 318.57,240.891 318.771,245.45C318.885,248.176 318.884,248.034 319.7,250.494C320.27,268.744 321.298,268.541 324.154,286.62C323.98,288.143 324.168,288.007 324.721,289.487C324.868,290.532 325.016,291.577 325.163,292.622C324.753,294.656 324.871,294.63 325.663,296.492C325.819,299.626 324.095,305.466 330.697,301.841C345.425,293.755 345.961,295.09 360.429,286.401C361.418,286.345 361.289,286.244 363.447,285.312C364.212,285.025 368.97,283.239 372.387,280.365C373.652,280.149 373.59,280.186 374.45,279.325C377.152,278.279 413.224,257.352 419.451,252.442C420.622,252.183 420.416,251.917 421.513,250.524C425.423,249.296 424.889,248.494 428.449,246.433C430.626,245.922 430.167,245.472 430.389,245.299C446.609,234.683 446.656,234.862 454.605,227.624C455.586,226.731 456.56,228.147 468.247,218.175C469.826,216.828 475.083,213.131 476.463,211.46C479.091,210.817 479.304,209.385 479.38,209.319C479.555,209.18 479.527,209.168 481.543,207.563C481.917,207.265 481.948,207.495 482.312,207.234C482.399,207.171 482.312,207.234 483.289,206.309C484.289,205.257 485.251,204.493 485.433,204.349C487.636,203.193 487.624,203.266 489.281,201.323C489.522,201.055 491.118,200.884 491.509,198.516C499.731,198.582 499.607,199.248 506.319,203.77C510.381,206.507 501.14,209.63 492.554,218.557C491.339,218.82 491.553,219.108 490.489,220.483C489.31,221.185 482.53,225.219 476.703,230.689C476.298,231.285 475.893,231.882 475.488,232.478C471.969,233.629 472.205,233.879 469.546,236.55C468.395,236.856 468.644,237.019 467.462,238.432C463.993,240.096 448.083,253.016 447.559,253.564C444.932,253.975 445.723,254.772 445.709,254.785C445.326,255.074 444.943,255.364 444.56,255.653C443.723,256.002 442.669,256.44 435.283,262.165C430.953,265.522 431.113,265.568 430.529,266.522C428.821,266.618 428.747,266.447 427.626,267.734C427.436,267.797 424.953,269.559 424.723,269.722C424.313,270.31 423.902,270.899 423.492,271.488C401.822,284.252 403.623,287.116 395.787,289.944C394.349,290.463 390.117,294.236 389.655,294.647C388.158,294.921 388.387,295.155 387.489,296.477C384.593,297.409 384.646,297.427 382.544,299.551C380.259,300.087 380.737,300.636 380.629,300.724C380.269,301.004 379.908,301.284 379.548,301.563C378.898,301.933 378.248,302.302 377.598,302.672C370.525,306.482 363.693,311.689 362.547,312.563C361.899,312.937 361.25,313.312 360.602,313.686C356.3,315.94 354.971,317.167 354.548,317.557C353.387,317.816 353.593,318.078 352.491,319.482C351.679,319.616 349.466,319.982 343.548,324.565C342.881,324.918 342.214,325.272 341.547,325.626C340.855,325.921 338.194,327.059 333.543,330.559C332.875,330.908 332.207,331.257 331.54,331.607C331.117,331.799 329.015,332.759 326.555,334.575C326.194,334.661 326.227,334.678 323.675,335.834L322.568,336.724C314.454,340.48 292.118,357.399 287.448,353.554C286.816,352.857 286.184,352.161 285.552,351.465C284.599,349.893 284.619,350.043 283.364,348.677C282.279,347.714 281.444,346.815 281.286,346.645C280.876,346.108 278.107,342.486 275.443,340.555C274.815,339.857 274.187,339.158 273.559,338.46C268.643,331.231 262.826,330.349 268.657,326.823C270.105,327.045 269.961,326.908 271.475,326.331C272.543,326.026 281.387,323.497 284.397,321.258C285.422,320.948 286.447,320.637 287.471,320.326C293.107,318.648 292.505,317.187 298.312,316.078C299.56,315.433 299.581,315.583 300.404,314.444C300.378,310.449 299.148,310.668 298.191,264.548C298.134,253.913 298.14,254.006 298.205,243.458C298.231,236.42 298.276,236.501 298.272,223.493C298.792,222.046 298.995,222.176 298.857,220.611C299.823,201.509 302.99,191.344 303.287,178.487C303.853,177.045 304.072,177.189 303.839,175.622C305.424,168.805 308.14,163.851 302.538,166.561C301.875,166.676 301.919,166.731 299.597,167.756C298.502,167.912 292.277,171.418 291.657,171.768C291.563,171.821 291.657,171.768 290.645,172.661C289.41,172.85 289.479,172.894 288.644,173.751C288.279,174.044 287.913,174.337 287.548,174.63C285.436,175.542 271.732,185.284 267.541,189.543C265.947,189.972 265.922,189.971 265.472,191.458C263.324,192.755 263.472,192.817 261.69,194.645C261.331,195.301 260.973,195.958 260.614,196.614C259.957,196.972 259.3,197.329 258.643,197.687C256.77,199.197 257.052,199.281 255.46,201.473C253.928,201.914 253.924,201.995 253.465,203.454C251.178,205.193 251.462,205.367 249.707,207.637C249.322,208.274 248.937,208.91 248.552,209.547C246.424,211.217 246.705,211.37 242.718,216.633C242.33,217.271 241.942,217.91 241.555,218.549C238.914,221.139 239.078,221.121 237.498,224.499C235.947,224.817 235.91,224.896 235.548,226.544C232.568,229.512 230.846,229.537 229.857,225.331C229.415,223.448 229.207,221.885 229.167,221.582C228.87,220.559 228.573,219.535 228.276,218.511C228.34,204.018 227.477,203.74 233.301,190.452C233.617,189.427 233.934,188.402 234.25,187.377C237.616,183.459 237.09,181.63 244.353,174.38C245.314,173.312 246.191,172.452 246.356,172.29C250.858,168.679 250.862,168.899 255.448,165.432C256.632,165.14 256.429,164.884 257.516,163.532C258.27,163.302 262.41,162.043 266.382,159.258C269.182,158.933 268.904,158.555 271.434,157.257C278.28,154.314 278.411,154.967 285.398,152.369C286.379,152.004 285.677,151.723 285.793,151.456C285.666,151.209 285.539,150.962 285.412,150.715C279.428,151.019 263.284,154.723 261.378,155.16C259.848,155.005 259.984,155.182 258.518,155.712C257.804,155.86 257.089,156.008 256.374,156.156C254.89,155.985 254.97,156.136 253.515,156.664C249.44,157.416 247.767,156.905 239.342,161.172C237.853,160.971 237.948,161.188 236.588,161.765L236.371,162.177C234.784,161.955 234.923,162.131 233.537,162.666C231.704,163.373 217.287,168.932 211.616,173.738C210.614,174.072 209.612,174.407 208.61,174.741C207.31,175.418 195.054,181.795 192.555,183.576C191.817,183.733 191.878,183.807 188.555,185.695C187.957,185.924 185.109,187.021 181.559,189.581C181.402,189.613 181.538,189.572 178.618,190.741L177.554,191.69C176.913,191.944 176.973,191.751 176.33,192.174C175.79,192.529 169.951,196.372 169.571,196.598C168.409,196.679 168.503,196.829 166.56,197.72C163.749,198.408 163.73,198.612 163.531,198.461C163.531,198.461 163.318,195.721 163.3,195.483C163.892,194.056 164.108,194.137 163.815,192.652C164.336,191.634 165.977,188.428 169.313,179.456C169.595,178.752 169.876,178.048 170.158,177.344C171.245,175.024 171.279,175.097 171.42,174.446C171.497,174.336 171.433,174.443 172.866,171.691C176.247,165.199 176.811,165.694 180.317,159.39C180.697,158.747 181.077,158.104 181.456,157.461C184.251,154.668 183.706,154.323 186.47,151.472C202.963,134.465 215.861,132.383 221.649,128.81C223.611,129.283 223.569,129.179 225.485,128.345C235.927,126.384 253.03,122.905 272.596,127.04C273.159,127.159 297.152,132.229 279.739,126.178C262.253,120.101 263.026,118.485 255.452,115.695C254.072,115.141 254.145,114.96 252.657,115.184C248.199,112.612 248.367,112.626 243.467,110.645C241.258,109.69 241.574,108.713 238.661,109.178C236.812,108.06 235.488,106.988 229.457,104.672C228.764,104.372 228.071,104.073 227.378,103.773C226.052,103.202 226.22,102.944 224.661,103.179C221.417,101.224 220.585,100.259 216.442,98.713C215.746,98.416 215.05,98.119 214.354,97.822C213.056,97.238 213.228,97.001 211.666,97.175C207.535,94.814 207.852,94.483 203.46,92.623C203.082,92.365 202.704,92.108 202.325,91.85C201.345,91.467 200.365,91.083 199.384,90.7C195.712,87.191 190.059,86.241 190.279,83.472C190.456,81.248 211.343,71.267 212.629,70.824C214.154,71.023 214.08,70.851 215.478,70.333C239.37,64.438 249.08,66.617 264.525,70.316C266.583,71.274 266.445,71.26 268.557,71.411C270.112,72.495 270.474,71.595 289.505,82.493C289.906,83.103 290.307,83.714 290.709,84.325C292.37,86.199 292.531,85.845 295.509,87.487C295.795,89.514 296.412,89.064 296.689,89.363C298.455,91.584 298.378,91.537 300.651,93.298C300.957,94.927 301.007,95.081 302.676,95.428C303.888,98.456 304.208,98.138 306.554,100.452C306.916,101.117 307.277,101.781 307.639,102.446C308.945,105.454 312.124,109.845 312.565,110.454C312.917,111.125 313.269,111.796 313.62,112.467C314.979,116.578 315.128,116.434 316.673,120.412C316.686,120.585 317.845,127.036 318.806,120.803C326.494,98.042 332.031,95.492 337.565,86.543C338.193,85.846 338.821,85.148 339.448,84.45C339.85,84.051 344.234,79.691 344.458,79.457C346.227,78.188 346.17,78.257 347.516,76.524C352.941,73.61 352.266,72.786 357.667,69.852C364.257,66.273 364.168,66.332 370.691,62.839C376.19,59.894 376.901,60.485 378.448,59.417C380.559,59.282 380.422,59.296 382.478,58.338C396.568,54.788 396.435,54.441 402.619,53.852Z" style="fill:rgb(252,108,15);fill-opacity:0.99;"/>
        </g>
        <g transform="matrix(1.171875,0,0,1.171875,0,0)">
            <path d="M325.633,343.843C327.192,344.024 327.063,343.875 328.486,343.365C335.095,343.09 336.126,343.916 336.643,350.477C336.792,352.375 337.353,359.508 342.177,373.624C341.905,375.11 342.111,375.029 342.692,376.483C344.46,387.293 344.612,387.137 348.173,397.627C347.956,399.102 348.094,398.961 348.661,400.485C349.604,407.864 351.794,412.577 354.181,419.625C353.903,421.144 354.09,421.06 354.653,422.484C357.004,431.759 357.131,431.571 360.172,440.628C359.933,442.161 360.106,442.09 360.641,443.483C360.683,443.734 361.172,446.621 361.172,446.621C365.239,458.48 365.099,458.529 365.743,459.404C365.864,461.559 365.716,461.518 366.648,463.479C368.506,470.427 386.322,523.21 388.742,526.397C389.046,527.423 389.351,528.449 389.656,529.475C391.367,535.13 391.641,534.978 391.751,535.474C392.006,536.633 391.77,537.757 377.383,539.148C375.885,539.009 376.015,539.178 374.511,539.723C372.8,539.865 371.089,540.007 369.377,540.148C367.318,540.022 367.466,540.179 365.507,540.688C347.588,541.408 341.388,543.969 327.374,546.148C325.767,545.957 325.913,546.154 324.51,546.67C311.796,547.135 304.142,550.915 295.562,551.757C293.39,551.86 293.443,551.782 291.51,552.639C281.258,554.657 281.448,554.881 271.374,557.157C269.844,557.018 269.985,557.201 268.568,557.753C266.417,557.819 266.441,557.679 264.511,558.633C263.164,558.889 260.036,558.886 247.371,563.166C245.772,562.977 245.916,563.168 244.518,563.672C235.445,564.831 235.928,566.461 231.479,567.445C230.668,567.624 225.465,568.775 221.425,570.049C190.633,579.761 231.501,562.922 236.661,559.829C238.242,560.005 238.081,559.827 239.452,559.294C240.451,558.911 248.141,555.964 251.66,553.829C253.117,554.011 252.976,553.879 254.46,553.313C261.273,550.913 261.447,551.628 267.646,547.8C269.606,548.3 269.597,548.174 271.464,547.313C279.189,544.657 279.082,544.714 286.653,541.821C288.158,542.117 288.078,541.899 289.482,541.341C297.13,539.238 297.073,539.4 304.63,536.835C306.163,536.991 306.02,536.797 307.425,536.24L307.62,535.805C309.605,536.307 309.566,536.211 311.486,535.361C320.228,533.631 320.15,533.682 328.627,530.836C330.205,531.03 330.06,530.829 331.471,530.297C331.855,530.14 332.239,529.982 332.622,529.825C334.61,530.248 334.574,530.155 336.491,529.385C342.747,528.345 342.691,528.38 343.453,528.192C350.398,526.483 347.855,523.814 344.839,517.339C344.989,515.806 344.793,515.955 344.24,514.585L343.833,514.367C344.017,512.774 343.862,512.914 343.346,511.525C341.474,505.218 341.308,505.431 338.839,499.34C339.001,497.803 338.803,497.951 338.255,496.577L337.828,496.37C338.063,494.833 337.924,494.969 337.364,493.519C335.376,486.787 335.066,487.037 332.816,480.375C333.076,478.78 332.858,478.924 332.319,477.519C330.003,468.213 329.878,468.375 326.814,459.377C327.114,457.847 326.887,457.931 326.32,456.517C324.494,448.31 324.913,448.335 320.803,436.381C321.33,434.362 321.198,434.371 320.344,432.512C317.806,420.876 317.62,421.088 314.827,409.379C315.267,407.313 315.135,407.373 314.364,405.51C312.905,396.619 312.949,396.675 309.838,383.378C310.047,381.831 309.842,381.971 309.285,380.516L309.259,378.554C309.09,375.958 309.18,376.093 308.386,373.506C306.977,355.389 302.745,354.175 307.425,350.396C309.683,350.373 309.551,350.321 311.451,349.294C318.384,346.265 324.48,344.228 325.633,343.843Z" style="fill:rgb(252,108,15);fill-opacity:0.98;"/>
        </g>
        <g transform="matrix(1.171875,0,0,1.171875,0,0)">
            <path d="M698.513,349.355C700.349,350.15 700.328,350.302 702.351,349.812C705.432,351.715 713.097,354.024 716.54,355.324C717.896,355.862 717.745,356.071 719.329,355.854C725.424,359.347 720.41,366.357 719.735,374.531C719.123,381.944 716.574,382.823 715.634,393.512C715.339,394.529 715.045,395.546 714.751,396.564L714.693,397.529C714.19,398.938 714.015,398.797 714.162,400.372C709.486,414.35 710.224,414.506 709.644,417.515C709.115,418.91 708.933,418.837 709.166,420.374C709.013,420.76 708.86,421.146 708.707,421.532C708.173,422.948 707.968,422.804 708.165,424.344C707.127,426.109 704.112,434.964 703.658,439.518C703.111,440.922 702.936,440.853 703.174,442.373C700.096,449.436 698,458.12 697.662,459.52C697.147,460.926 696.979,460.851 697.169,462.37C693.64,470.521 692.001,477.198 691.676,478.524C691.159,479.902 690.946,479.753 691.171,481.343C689.224,484.586 686.926,492.522 686.637,493.521C686.048,494.979 685.9,494.843 686.19,496.376L685.755,496.584C685.168,497.948 684.922,497.869 685.182,499.346C679.426,510.396 681.388,511.111 676.13,522.322C673.233,528.5 676.861,528.199 683.51,529.383C685.46,530.167 685.33,530.098 687.559,530.263L688.527,530.305C689.938,530.819 689.796,531.003 691.372,530.839C701.039,534.077 704.984,534.647 708.514,535.359C710.46,536.173 710.412,536.255 712.378,535.811C714.205,536.626 725.286,540.801 730.518,541.344C731.912,541.908 731.82,542.11 733.376,541.813L733.581,542.235C734.964,542.795 734.814,542.998 736.371,542.827C763.376,552.021 763.158,552.595 765.533,553.307C766.912,553.826 766.751,553.997 768.338,553.837C770.386,554.859 770.214,554.952 772.461,555.582C773.328,555.825 773.724,556.702 774.658,557.069C791.205,563.573 791.102,563.774 792.543,564.328C793.243,564.616 793.942,564.904 794.641,565.192C797.097,566.268 797.049,566.297 797.567,566.403C802.208,569.509 808.211,570.762 808.261,570.798C820.484,579.558 801.464,570.817 794.48,569.691C793.102,569.155 793.253,568.931 791.652,569.182C784.934,565.085 774.99,563.864 773.482,563.679C772.09,563.158 772.239,562.95 770.627,563.172C762.68,560.466 762.868,560.338 754.488,558.619C752.493,557.865 752.632,557.932 750.438,557.744L749.472,557.697C748.062,557.179 748.204,556.992 746.628,557.162C734.48,553.108 728.138,552.736 726.49,552.639C724.585,551.734 724.634,551.834 722.438,551.759L721.471,551.71C720.455,551.416 719.439,551.123 718.423,550.829C705.806,549.188 706.167,547.15 693.489,546.682C692.472,546.381 691.455,546.081 690.438,545.781C673.74,544.415 674.203,541.326 652.493,540.696C651.142,540.395 649.792,540.094 648.442,539.793C630.342,538.785 629.987,536.884 630.499,535.499C632.046,531.313 632.705,531.724 634.329,527.46C635.235,525.276 635.296,525.398 635.425,524.452C636.205,523.311 645.697,499.435 646.308,497.467C646.824,496.09 646.993,496.251 646.839,494.663C652.359,483.593 652.125,481.246 652.311,480.473C653.298,478.018 653.326,478.16 653.41,477.444C653.96,476.624 661.44,455.904 663.342,449.475C663.862,448.086 664.015,448.226 663.837,446.633C668.545,435.731 669.107,432.6 669.337,430.481C669.914,429.073 670.136,429.162 669.804,427.621L670.228,427.414C670.802,426.066 671.064,426.234 670.826,424.656C673.011,421.053 675.075,412.562 675.338,411.48C675.859,410.095 676.059,410.178 675.832,408.657C677.891,405.221 687.037,372.751 687.321,369.481C687.848,368.035 688,368.115 687.838,366.63C688.456,364.788 690.594,360.029 692.424,350.478C692.945,347.758 694.153,349.278 698.513,349.355Z" style="fill:rgb(252,108,15);fill-opacity:0.99;"/>
        </g>
        <g transform="matrix(1.171875,0,0,1.171875,0,0)">
            <path d="M639.654,691.743L639.479,692.496C639.748,694.974 641.606,692.805 647.272,696.809C663.5,708.276 656.879,749.076 612.496,750.035C609.311,750.104 576.36,750.817 572.685,749.119C570.981,748.332 572.008,747.504 589.04,650.422C590.27,643.407 587.382,640.165 594.507,639.609C647.854,635.453 654.323,645.525 657.063,649.792C659.998,654.362 668.563,682.023 639.654,691.743ZM625.357,707.407C619.46,702.762 604.809,703.462 604.262,706.438C601.628,720.757 600.882,726.04 602.507,726.481C602.893,726.586 602.875,726.52 607.475,726.999C609.553,727.096 632.797,728.189 627.564,710.477C627.207,709.266 626.425,708.249 625.357,707.407ZM610.988,668.577C610.7,670.302 607.364,683.597 610.467,683.694C610.513,683.696 632.79,686.843 633.534,671.502C634.167,658.45 612.671,661.183 611.965,663.662C611.507,665.268 611.446,666.971 610.988,668.577Z" style="fill-opacity:1;"/>
        </g>
        <g transform="matrix(1.171875,0,0,1.171875,0,0)">
            <path d="M423.418,738.87C420.845,741.318 403.126,758.169 379.641,746.223C348.941,730.608 359.914,670.22 406.578,681.181C420.662,684.489 424.052,694.444 424.206,690.425C424.488,683.078 423.448,679.4 430.581,681.174C435.35,682.36 434.762,684.454 434.127,742.499C433.499,799.776 354.958,772.832 368.846,759.863C374.515,754.569 384.779,775.365 409.588,766.732C426.326,760.907 424.142,740.448 424.22,739.569C423.952,739.336 423.685,739.103 423.418,738.87L379.01,697.013C358.989,721.556 387.502,753.908 414.177,736.054C433.586,723.064 423.086,681.651 390.62,689.947C383.822,691.684 384.155,692.343 379.01,697.013L423.418,738.87Z" style="fill-opacity:0.99;"/>
        </g>
        <g transform="matrix(1.171875,0,0,1.171875,0,0)">
            <path d="M284.009,739.985C261.263,712.475 282.203,671.803 319.553,681.301C333.748,684.91 336.614,694.771 336.521,689.504C336.255,674.489 346.024,682.54 346.281,684.542C346.856,689.016 346.464,740.623 346.427,745.5C346.081,791.121 280.321,778.833 279.977,763.491C279.756,753.679 289.258,761.55 289.874,762.06C296.096,767.213 334.955,781.564 336.365,742.502C336.639,734.902 333.192,742.972 326.423,746.345C304.004,757.515 286.589,742.247 284.009,739.985L329.997,697.052C297.085,668.973 269.592,717.224 294.815,736.073C317.692,753.169 351.45,724.412 329.997,697.052L284.009,739.985Z" style="fill-opacity:0.99;"/>
        </g>
        <g transform="matrix(1.171875,0,0,1.171875,0,0)">
            <path d="M832.01,741.981C815.775,722.948 826.543,686.444 853.615,678.896C911.013,662.892 911.308,732.814 878.286,747.043C850.37,759.072 834.735,744.519 832.01,741.981L871.998,724.902C873.382,722.976 873.502,723.155 874.263,721.394C883.291,700.475 861.654,690.606 852.869,703.757C840.986,721.545 858.413,740.716 871.998,724.902L832.01,741.981Z" style="fill-opacity:1;"/>
        </g>
        <g transform="matrix(1.171875,0,0,1.171875,0,0)">
            <path d="M244.965,742.977C218.99,766.061 175.555,740.092 189.922,700.66C199.007,675.725 234.983,674.479 247.322,690.836C250.121,694.545 246.685,677.244 256.517,681.465C260.155,683.027 258.754,690.727 258.958,740.5C258.959,740.933 260.807,751.593 252.601,750.087C246.055,748.885 251.505,735.2 246.452,741.448C245.634,742.46 245.062,742.877 244.965,742.977L203.954,734.084C238.054,762.874 265.733,711.694 237.264,692.862C216.826,679.343 182.723,702.71 203.954,734.084L244.965,742.977Z" style="fill-opacity:0.99;"/>
        </g>
        <g transform="matrix(1.171875,0,0,1.171875,0,0)">
            <path d="M541.042,689.968C543.442,693.084 560.947,715.811 543.002,739.091C524.464,763.141 469.748,751.113 479.996,705.617C483.595,689.639 508.599,665.338 541.042,689.968L533.014,695.986C529.351,693.108 529.702,692.643 525.319,690.955C495.442,679.45 479.578,716.231 494.788,733.261C517.662,758.871 558.191,726.208 533.014,695.986L541.042,689.968Z" style="fill-opacity:0.99;"/>
        </g>
        <g transform="matrix(1.171875,0,0,1.171875,0,0)">
            <path d="M1023.999,688.5L1023.999,705.5C1018.801,721.356 1018.353,749.528 1013.508,749.609C994.845,749.923 992.067,749.785 992.218,747.49C992.934,736.648 1008.256,686.834 988.647,701.68C985.591,703.994 976.824,716.174 975.496,723.499C974.142,730.969 974.364,730.836 973.001,738.416C972.74,739.872 972.133,749.588 968.503,749.618C954.641,749.731 946.923,750.358 947.416,747.494C951.892,721.446 952.239,721.653 956.644,695.523C957.674,689.414 958.363,678.903 961.52,678.805C982.139,678.167 982.809,678.754 982.937,680.468C982.99,681.179 982.918,681.077 980.938,689.485C981.209,689.657 981.479,689.83 981.75,690.003C983.205,689.442 997.522,672.319 1014.363,677.88C1019.939,679.721 1020.916,683.646 1023.999,688.5Z" style="fill-opacity:1;"/>
        </g>
        <g transform="matrix(1.171875,0,0,1.171875,0,0)">
            <path d="M749.933,744.943C730.227,757.196 702.48,753.963 707.233,723.462C707.574,721.27 718.907,660.707 718.931,660.661C719.993,658.571 729.556,659.224 739.505,659.231C741.809,659.233 742.567,659.205 742.219,661.476C739.95,676.251 737.214,678.708 741.47,678.785C756.971,679.064 758.833,677.594 758.542,680.498C756.543,700.41 755.216,700.665 753.55,700.736C738.715,701.363 735.981,698.414 734.771,704.548C732.457,716.271 725.36,736.237 743.559,726.618C743.75,726.517 745.37,725.661 746.038,727.672C751.101,742.925 750.642,743.717 749.933,744.943Z" style="fill-opacity:1;"/>
        </g>
        <g transform="matrix(1.171875,0,0,1.171875,0,0)">
            <path d="M784.906,728.006C803.469,736.404 806.487,721.458 810.142,724.951C811.505,726.254 817.665,735.678 818.289,736.632C825.961,748.37 751.733,769.697 757.397,717.489C763.036,665.5 826.861,674.74 823.534,683.513C817.442,699.577 815.996,699.306 814.586,699.042C777.499,692.1 779.214,720.458 784.906,728.006Z" style="fill-opacity:1;"/>
        </g>
        <g transform="matrix(1.171875,0,0,1.171875,0,0)">
            <path d="M0,661.5L0,655.5C10.533,650.132 10.298,656.857 21.949,682.297C43.04,728.353 42.798,728.421 44.764,732.359C44.892,732.615 46.082,734.999 47.927,730.692C49.311,727.462 81.478,657.506 81.891,656.713C84.493,651.721 95.994,651.097 90.078,664.307C87.037,671.098 54.008,744.845 50.46,748.461C48.136,750.828 42.417,751.569 39.864,746.306C34.29,734.816 2.996,665.377 0,661.5Z" style="fill-opacity:1;"/>
        </g>
        <g transform="matrix(1.171875,0,0,1.171875,0,0)">
            <path d="M668.979,718.581C675.93,680.673 675.059,678.889 678.507,678.793C698.047,678.25 698.413,678.197 699.365,679.569C700.137,680.681 688.783,742.145 687.78,747.571C687.455,749.333 686.906,750.261 665.482,749.611C662.985,749.535 663.907,747.906 668.979,718.581Z" style="fill-opacity:1;"/>
        </g>
        <g transform="matrix(1.171875,0,0,1.171875,0,0)">
            <path d="M914.006,706.415C917.556,685.263 918.057,679.772 919.676,678.97C919.732,678.942 941.099,677.986 942.014,679.665C942.534,680.62 930.548,746.839 930.416,747.477C929.986,749.551 928.778,749.963 908.488,749.619C905.004,749.56 906.013,747.236 914.006,706.415Z" style="fill-opacity:1;"/>
        </g>
        <g transform="matrix(1.171875,0,0,1.171875,0,0)">
            <path d="M162.972,749.001C160.893,744.071 161.399,743.996 161.399,717.5C161.399,652.513 160.465,649.222 166.495,649.131C172.526,649.041 171.53,652.413 171.53,709.5C171.53,744.862 173.662,753.72 162.972,749.001Z" style="fill-opacity:1;"/>
        </g>
        <g transform="matrix(1.171875,0,0,1.171875,0,0)">
            <path d="M140.999,748.999C130.629,755.764 132.384,744.647 132.384,690.5C132.384,658.08 130.591,646.446 139.527,649.425C142.987,650.578 142.509,652.076 142.508,734.5C142.508,738.03 143.384,745.566 140.999,748.999Z" style="fill-opacity:1;"/>
        </g>
        <g transform="matrix(1.171875,0,0,1.171875,0,0)">
            <path d="M457.524,680.993C464.471,682.144 462.901,684.452 462.901,691.5C462.901,747.334 463.609,749.394 459.411,750.102C450.446,751.614 452.864,735.857 452.864,731.5C452.864,684.741 451.855,682.495 457.524,680.993Z" style="fill-opacity:0.99;"/>
        </g>
        <g transform="matrix(1.171875,0,0,1.171875,0,0)">
            <path d="M105.087,748.922C103.972,747.327 104.031,747.471 103.972,747.327C102.683,744.163 103.61,690.46 103.695,685.516C103.782,680.505 111.085,679.317 113.078,683.67C114.116,685.937 113.544,738.714 113.492,743.5C113.483,744.3 113.371,754.626 105.087,748.922Z" style="fill-opacity:1;"/>
        </g>
        <g transform="matrix(1.171875,0,0,1.171875,0,0)">
            <path d="M682.913,640.998C684.08,640.381 692.53,635.91 699.37,639.722C706.371,643.623 706.378,650.403 706.379,651.499C706.402,676.629 663.125,664.231 682.913,640.998Z" style="fill-opacity:0.99;"/>
        </g>
        <g transform="matrix(1.171875,0,0,1.171875,0,0)">
            <path d="M925.071,661.952C914.403,648.999 925.767,637.072 935.479,637.883C960.882,640.004 946.158,678.455 925.071,661.952Z" style="fill-opacity:1;"/>
        </g>
        <g transform="matrix(1.171875,0,0,1.171875,0,0)">
            <path d="M461.227,654.985C471.574,664.893 452.835,671.618 451.918,661.44C451.091,652.265 460.351,654.75 461.227,654.985Z" style="fill-opacity:0.99;"/>
        </g>
        <g transform="matrix(1.171875,0,0,1.171875,0,0)">
            <path d="M112.995,656.038C120.919,667.664 100.421,670.42 102.499,659.5C103.178,655.933 107.08,651.527 112.995,656.038Z" style="fill-opacity:1;"/>
        </g>
    </g>
</svg>
